SplineFontDB: 3.2
FontName: my3x5tinymonopixelfont
FullName: my 3x5 tiny mono pixel font Regular
FamilyName: my 3x5 tiny mono pixel font
Weight: Book
Copyright: Copyright Alasse: Ea:rfalas 2020
Version: 1.0
ItalicAngle: 0
UnderlinePosition: 0
UnderlineWidth: 0
Ascent: 1706
Descent: 342
InvalidEm: 0
sfntRevision: 0x00010000
LayerCount: 2
Layer: 0 1 "Hinten" 1
Layer: 1 1 "Vorne" 0
XUID: [1021 472 1413029470 16098795]
StyleMap: 0x0040
FSType: 4
OS2Version: 2
OS2_WeightWidthSlopeOnly: 0
OS2_UseTypoMetrics: 0
CreationTime: 1724287537
ModificationTime: 1763830943
PfmFamily: 81
TTFWeight: 400
TTFWidth: 5
LineGap: 341
VLineGap: 0
Panose: 0 0 6 0 0 0 0 0 0 0
OS2TypoAscent: 1706
OS2TypoAOffset: 0
OS2TypoDescent: -342
OS2TypoDOffset: 0
OS2TypoLinegap: 341
OS2WinAscent: 1706
OS2WinAOffset: 0
OS2WinDescent: 342
OS2WinDOffset: 0
HheadAscent: 1706
HheadAOffset: 0
HheadDescent: -342
HheadDOffset: 0
OS2SubXSize: 1024
OS2SubYSize: 1024
OS2SubXOff: 0
OS2SubYOff: -146
OS2SupXSize: 1024
OS2SupYSize: 1024
OS2SupXOff: 0
OS2SupYOff: 1024
OS2StrikeYSize: 102
OS2StrikeYPos: 409
OS2CapHeight: 1706
OS2XHeight: 1365
OS2Vendor: 'PXFG'
OS2CodePages: 00000001.00000000
OS2UnicodeRanges: 80000003.00000000.00000000.00000000
DEI: 91125
ShortTable: maxp 16
  1
  0
  124
  31
  6
  0
  0
  2
  0
  0
  0
  0
  0
  0
  0
  0
EndShort
LangName: 1033 "Copyright Alass+AOsA E+AOQA-rfalas 2020" "" "Regular" "my 3x5 tiny mono pixel font" "" "Version 1.0" "" "" "https://pixel-forge.com" "Alass+AOsA E+AOQA-rfalas" "my 3x5 tiny mono pixel font was created using PixelForge" "https://alasseearfalas.itch.io/another-tiny-pixel-font-mono-3x5" "https://alasseearfalas.itch.io/another-tiny-pixel-font-mono-3x5" "CC0" "" "" "" "" "" "Sphinx of black quartz judge my vow"
GaspTable: 1 65535 2 0
Encoding: UnicodeBmp
UnicodeInterp: none
NameList: AGL For New Fonts
DisplaySize: -48
AntiAlias: 1
FitToEm: 0
WinInfo: 9408 28 8
Grid
-2048 341 m 0
 4096 341 l 1024
1023.5 2730 m 0
 1023.5 -1366 l 1024
EndSplineSet

StartChar: exclam
Encoding: 33 33 4
Width: 682
GlyphClass: 1
Flags: W
LayerCount: 2
Fore
SplineSet
0 0 m 1,0,-1
 0 341 l 1,1,-1
 341 341 l 1,2,-1
 341 0 l 1,3,-1
 0 0 l 1,0,-1
0 682 m 1,4,-1
 0 1024 l 1,5,-1
 0 1365 l 1,6,-1
 0 1706 l 1,7,-1
 341 1706 l 1,8,-1
 341 1365 l 1,9,-1
 341 1024 l 1,10,-1
 341 682 l 1,11,-1
 0 682 l 1,4,-1
EndSplineSet
Validated: 1
EndChar

StartChar: quotedbl
Encoding: 34 34 5
Width: 1365
GlyphClass: 1
Flags: W
LayerCount: 2
Fore
SplineSet
0 1024 m 1,0,-1
 0 1365 l 1,1,-1
 0 1706 l 1,2,-1
 341 1706 l 1,3,-1
 341 1365 l 1,4,-1
 341 1024 l 1,5,-1
 0 1024 l 1,0,-1
682 1024 m 1,6,-1
 682 1365 l 1,7,-1
 682 1706 l 1,8,-1
 1024 1706 l 1,9,-1
 1024 1365 l 1,10,-1
 1024 1024 l 1,11,-1
 682 1024 l 1,6,-1
EndSplineSet
Validated: 1
EndChar

StartChar: numbersign
Encoding: 35 35 6
Width: 1365
GlyphClass: 1
Flags: W
LayerCount: 2
Fore
SplineSet
0 0 m 1,0,-1
 0 341 l 1,1,-1
 0 682 l 1,2,-1
 0 1024 l 1,3,-1
 0 1365 l 1,4,-1
 0 1706 l 1,5,-1
 341 1706 l 1,6,-1
 341 1365 l 1,7,-1
 682 1365 l 1,8,-1
 682 1706 l 1,9,-1
 1024 1706 l 1,10,-1
 1024 1365 l 1,11,-1
 1024 1024 l 1,12,-1
 1024 682 l 1,13,-1
 1024 341 l 1,14,-1
 1024 0 l 1,15,-1
 682 0 l 1,16,-1
 682 341 l 1,17,-1
 341 341 l 1,18,-1
 341 0 l 1,19,-1
 0 0 l 1,0,-1
341 682 m 1,20,-1
 682 682 l 1,21,-1
 682 1024 l 1,22,-1
 341 1024 l 1,23,-1
 341 682 l 1,20,-1
EndSplineSet
Validated: 1
EndChar

StartChar: dollar
Encoding: 36 36 7
Width: 1365
GlyphClass: 1
Flags: W
LayerCount: 2
Fore
SplineSet
0 341 m 1,0,-1
 0 682 l 1,1,-1
 341 682 l 1,2,-1
 341 1024 l 1,3,-1
 0 1024 l 1,4,-1
 0 1365 l 1,5,-1
 341 1365 l 1,6,-1
 341 1706 l 1,7,-1
 682 1706 l 1,8,-1
 1024 1706 l 1,9,-1
 1024 1365 l 1,10,-1
 682 1365 l 1,11,-1
 682 1024 l 1,12,-1
 1024 1024 l 1,13,-1
 1024 682 l 1,14,-1
 1024 341 l 1,15,-1
 682 341 l 1,16,-1
 682 0 l 1,17,-1
 341 0 l 1,18,-1
 341 341 l 1,19,-1
 0 341 l 1,0,-1
EndSplineSet
Validated: 1
EndChar

StartChar: percent
Encoding: 37 37 8
Width: 1365
GlyphClass: 1
Flags: W
LayerCount: 2
Fore
SplineSet
0 0 m 1,0,-1
 341 0 l 1,1,-1
 341 341 l 1,2,-1
 341 682 l 1,3,-1
 0 682 l 1,4,-1
 0 341 l 1,5,-1
 0 0 l 1,0,-1
0 1365 m 1,6,-1
 341 1365 l 1,7,-1
 341 1706 l 1,8,-1
 0 1706 l 1,9,-1
 0 1365 l 1,6,-1
341 682 m 1,10,-1
 682 682 l 1,11,-1
 682 1024 l 1,12,-1
 341 1024 l 1,13,-1
 341 682 l 1,10,-1
682 0 m 1,14,-1
 1024 0 l 1,15,-1
 1024 341 l 1,16,-1
 682 341 l 1,17,-1
 682 0 l 1,14,-1
682 1024 m 1,18,-1
 1024 1024 l 1,19,-1
 1024 1365 l 1,20,-1
 1024 1706 l 1,21,-1
 682 1706 l 1,22,-1
 682 1365 l 1,23,-1
 682 1024 l 1,18,-1
EndSplineSet
Validated: 5
EndChar

StartChar: ampersand
Encoding: 38 38 9
Width: 1365
GlyphClass: 1
Flags: W
LayerCount: 2
Fore
SplineSet
0 341 m 1,0,-1
 341 341 l 1,1,-1
 341 682 l 1,2,-1
 0 682 l 1,3,-1
 0 341 l 1,0,-1
0 1024 m 1,4,-1
 341 1024 l 1,5,-1
 341 682 l 1,6,-1
 682 682 l 1,7,-1
 682 341 l 1,8,-1
 341 341 l 1,9,-1
 341 0 l 1,10,-1
 682 0 l 1,11,-1
 1024 0 l 1,12,-1
 1024 341 l 1,13,-1
 1024 682 l 1,14,-1
 1024 1024 l 1,15,-1
 682 1024 l 1,16,-1
 682 1365 l 1,17,-1
 1024 1365 l 1,18,-1
 1024 1706 l 1,19,-1
 682 1706 l 1,20,-1
 341 1706 l 1,21,-1
 341 1365 l 1,22,-1
 0 1365 l 1,23,-1
 0 1024 l 1,4,-1
EndSplineSet
Validated: 5
EndChar

StartChar: quotesingle
Encoding: 39 39 10
Width: 682
GlyphClass: 1
Flags: W
LayerCount: 2
Fore
SplineSet
0 1024 m 1,0,-1
 341 1024 l 1,1,-1
 341 1365 l 1,2,-1
 341 1706 l 1,3,-1
 0 1706 l 1,4,-1
 0 1365 l 1,5,-1
 0 1024 l 1,0,-1
EndSplineSet
Validated: 9
EndChar

StartChar: parenleft
Encoding: 40 40 11
Width: 1023
GlyphClass: 1
Flags: W
LayerCount: 2
Fore
SplineSet
0 341 m 1,0,-1
 341 341 l 1,1,-1
 341 682 l 1,2,-1
 341 1024 l 1,3,-1
 341 1365 l 1,4,-1
 0 1365 l 1,5,-1
 0 1024 l 1,6,-1
 0 682 l 1,7,-1
 0 341 l 1,0,-1
341 0 m 1,8,-1
 682 0 l 1,9,-1
 682 341 l 1,10,-1
 341 341 l 1,11,-1
 341 0 l 1,8,-1
341 1365 m 1,12,-1
 682 1365 l 1,13,-1
 682 1706 l 1,14,-1
 341 1706 l 1,15,-1
 341 1365 l 1,12,-1
EndSplineSet
Validated: 5
EndChar

StartChar: parenright
Encoding: 41 41 12
Width: 1024
GlyphClass: 1
Flags: W
LayerCount: 2
Fore
SplineSet
0 0 m 1,0,-1
 341 0 l 1,1,-1
 341 341 l 1,2,-1
 0 341 l 1,3,-1
 0 0 l 1,0,-1
0 1365 m 1,4,-1
 341 1365 l 1,5,-1
 341 1706 l 1,6,-1
 0 1706 l 1,7,-1
 0 1365 l 1,4,-1
341 341 m 1,8,-1
 683 341 l 1,9,-1
 683 682 l 1,10,-1
 683 1024 l 1,11,-1
 683 1365 l 1,12,-1
 341 1365 l 1,13,-1
 341 1024 l 1,14,-1
 341 682 l 1,15,-1
 341 341 l 1,8,-1
EndSplineSet
Validated: 5
EndChar

StartChar: asterisk
Encoding: 42 42 13
Width: 1365
GlyphClass: 1
Flags: W
LayerCount: 2
Fore
SplineSet
0 682 m 1,0,-1
 341 682 l 1,1,-1
 341 1024 l 1,2,-1
 0 1024 l 1,3,-1
 0 682 l 1,0,-1
0 1365 m 1,4,-1
 341 1365 l 1,5,-1
 341 1706 l 1,6,-1
 0 1706 l 1,7,-1
 0 1365 l 1,4,-1
341 1024 m 1,8,-1
 682 1024 l 1,9,-1
 682 1365 l 1,10,-1
 341 1365 l 1,11,-1
 341 1024 l 1,8,-1
682 682 m 1,12,-1
 1024 682 l 1,13,-1
 1024 1024 l 1,14,-1
 682 1024 l 1,15,-1
 682 682 l 1,12,-1
682 1365 m 1,16,-1
 1024 1365 l 1,17,-1
 1024 1706 l 1,18,-1
 682 1706 l 1,19,-1
 682 1365 l 1,16,-1
EndSplineSet
Validated: 5
EndChar

StartChar: plus
Encoding: 43 43 14
Width: 1365
GlyphClass: 1
Flags: W
LayerCount: 2
Fore
SplineSet
0 682 m 1,0,-1
 341 682 l 1,1,-1
 341 341 l 1,2,-1
 682 341 l 1,3,-1
 682 682 l 1,4,-1
 1024 682 l 1,5,-1
 1024 1024 l 1,6,-1
 682 1024 l 1,7,-1
 682 1365 l 1,8,-1
 341 1365 l 1,9,-1
 341 1024 l 1,10,-1
 0 1024 l 1,11,-1
 0 682 l 1,0,-1
EndSplineSet
Validated: 9
EndChar

StartChar: comma
Encoding: 44 44 15
Width: 1023
GlyphClass: 1
Flags: W
LayerCount: 2
Fore
SplineSet
0 0 m 1,0,-1
 341 0 l 1,1,-1
 341 341 l 1,2,-1
 0 341 l 1,3,-1
 0 0 l 1,0,-1
341 341 m 1,4,-1
 682 341 l 1,5,-1
 682 682 l 1,6,-1
 341 682 l 1,7,-1
 341 341 l 1,4,-1
EndSplineSet
Validated: 5
EndChar

StartChar: hyphen
Encoding: 45 45 16
Width: 1024
GlyphClass: 1
Flags: W
LayerCount: 2
Fore
SplineSet
0 682 m 1,0,-1
 341 682 l 1,1,-1
 683 682 l 1,2,-1
 683 1024 l 1,3,-1
 341 1024 l 1,4,-1
 0 1024 l 1,5,-1
 0 682 l 1,0,-1
EndSplineSet
Validated: 9
EndChar

StartChar: period
Encoding: 46 46 17
Width: 682
GlyphClass: 1
Flags: W
LayerCount: 2
Fore
SplineSet
0 0 m 1,0,-1
 341 0 l 1,1,-1
 341 341 l 1,2,-1
 0 341 l 1,3,-1
 0 0 l 1,0,-1
EndSplineSet
Validated: 9
EndChar

StartChar: slash
Encoding: 47 47 18
Width: 1365
GlyphClass: 1
Flags: W
LayerCount: 2
Fore
SplineSet
0 0 m 1,0,-1
 341 0 l 1,1,-1
 341 341 l 1,2,-1
 341 682 l 1,3,-1
 0 682 l 1,4,-1
 0 341 l 1,5,-1
 0 0 l 1,0,-1
341 682 m 1,6,-1
 682 682 l 1,7,-1
 682 1024 l 1,8,-1
 341 1024 l 1,9,-1
 341 682 l 1,6,-1
682 1024 m 1,10,-1
 1024 1024 l 1,11,-1
 1024 1365 l 1,12,-1
 1024 1706 l 1,13,-1
 682 1706 l 1,14,-1
 682 1365 l 1,15,-1
 682 1024 l 1,10,-1
EndSplineSet
Validated: 5
EndChar

StartChar: zero
Encoding: 48 48 19
Width: 1365
GlyphClass: 1
Flags: W
LayerCount: 2
Fore
SplineSet
0 0 m 1,0,-1
 341 0 l 1,1,-1
 682 0 l 1,2,-1
 1024 0 l 1,3,-1
 1024 341 l 1,4,-1
 1024 682 l 1,5,-1
 1024 1024 l 1,6,-1
 1024 1365 l 1,7,-1
 1024 1706 l 1,8,-1
 682 1706 l 1,9,-1
 341 1706 l 1,10,-1
 0 1706 l 1,11,-1
 0 1365 l 1,12,-1
 0 1024 l 1,13,-1
 0 682 l 1,14,-1
 0 341 l 1,15,-1
 0 0 l 1,0,-1
341 341 m 1,16,-1
 341 682 l 1,17,-1
 341 1024 l 1,18,-1
 341 1365 l 1,19,-1
 682 1365 l 1,20,-1
 682 1024 l 1,21,-1
 682 682 l 1,22,-1
 682 341 l 1,23,-1
 341 341 l 1,16,-1
EndSplineSet
Validated: 9
EndChar

StartChar: one
Encoding: 49 49 20
Width: 1365
GlyphClass: 1
Flags: W
LayerCount: 2
Fore
SplineSet
0 0 m 1,0,-1
 341 0 l 1,1,-1
 682 0 l 1,2,-1
 1024 0 l 1,3,-1
 1024 341 l 1,4,-1
 682 341 l 1,5,-1
 682 682 l 1,6,-1
 682 1024 l 1,7,-1
 682 1365 l 1,8,-1
 682 1706 l 1,9,-1
 341 1706 l 1,10,-1
 0 1706 l 1,11,-1
 0 1365 l 1,12,-1
 341 1365 l 1,13,-1
 341 1024 l 1,14,-1
 341 682 l 1,15,-1
 341 341 l 1,16,-1
 0 341 l 1,17,-1
 0 0 l 1,0,-1
EndSplineSet
Validated: 9
EndChar

StartChar: two
Encoding: 50 50 21
Width: 1365
GlyphClass: 1
Flags: W
LayerCount: 2
Fore
SplineSet
0 0 m 1,0,-1
 341 0 l 1,1,-1
 682 0 l 1,2,-1
 1024 0 l 1,3,-1
 1024 341 l 1,4,-1
 682 341 l 1,5,-1
 341 341 l 1,6,-1
 341 682 l 1,7,-1
 682 682 l 1,8,-1
 1024 682 l 1,9,-1
 1024 1024 l 1,10,-1
 1024 1365 l 1,11,-1
 1024 1706 l 1,12,-1
 682 1706 l 1,13,-1
 341 1706 l 1,14,-1
 0 1706 l 1,15,-1
 0 1365 l 1,16,-1
 341 1365 l 1,17,-1
 682 1365 l 1,18,-1
 682 1024 l 1,19,-1
 341 1024 l 1,20,-1
 0 1024 l 1,21,-1
 0 682 l 1,22,-1
 0 341 l 1,23,-1
 0 0 l 1,0,-1
EndSplineSet
Validated: 9
EndChar

StartChar: three
Encoding: 51 51 22
Width: 1365
GlyphClass: 1
Flags: W
LayerCount: 2
Fore
SplineSet
0 0 m 1,0,-1
 341 0 l 1,1,-1
 682 0 l 1,2,-1
 1024 0 l 1,3,-1
 1024 341 l 1,4,-1
 1024 682 l 1,5,-1
 1024 1024 l 1,6,-1
 1024 1365 l 1,7,-1
 1024 1706 l 1,8,-1
 682 1706 l 1,9,-1
 341 1706 l 1,10,-1
 0 1706 l 1,11,-1
 0 1365 l 1,12,-1
 341 1365 l 1,13,-1
 682 1365 l 1,14,-1
 682 1024 l 1,15,-1
 341 1024 l 1,16,-1
 341 682 l 1,17,-1
 682 682 l 1,18,-1
 682 341 l 1,19,-1
 341 341 l 1,20,-1
 0 341 l 1,21,-1
 0 0 l 1,0,-1
EndSplineSet
Validated: 9
EndChar

StartChar: four
Encoding: 52 52 23
Width: 1365
GlyphClass: 1
Flags: W
LayerCount: 2
Fore
SplineSet
0 682 m 1,0,-1
 341 682 l 1,1,-1
 682 682 l 1,2,-1
 682 341 l 1,3,-1
 682 0 l 1,4,-1
 1024 0 l 1,5,-1
 1024 341 l 1,6,-1
 1024 682 l 1,7,-1
 1024 1024 l 1,8,-1
 1024 1365 l 1,9,-1
 1024 1706 l 1,10,-1
 682 1706 l 1,11,-1
 682 1365 l 1,12,-1
 682 1024 l 1,13,-1
 341 1024 l 1,14,-1
 341 1365 l 1,15,-1
 341 1706 l 1,16,-1
 0 1706 l 1,17,-1
 0 1365 l 1,18,-1
 0 1024 l 1,19,-1
 0 682 l 1,0,-1
EndSplineSet
Validated: 9
EndChar

StartChar: five
Encoding: 53 53 24
Width: 1365
GlyphClass: 1
Flags: W
LayerCount: 2
Fore
SplineSet
0 0 m 1,0,-1
 341 0 l 1,1,-1
 682 0 l 1,2,-1
 1024 0 l 1,3,-1
 1024 341 l 1,4,-1
 1024 682 l 1,5,-1
 1024 1024 l 1,6,-1
 682 1024 l 1,7,-1
 341 1024 l 1,8,-1
 341 1365 l 1,9,-1
 682 1365 l 1,10,-1
 1024 1365 l 1,11,-1
 1024 1706 l 1,12,-1
 682 1706 l 1,13,-1
 341 1706 l 1,14,-1
 0 1706 l 1,15,-1
 0 1365 l 1,16,-1
 0 1024 l 1,17,-1
 0 682 l 1,18,-1
 341 682 l 1,19,-1
 682 682 l 1,20,-1
 682 341 l 1,21,-1
 341 341 l 1,22,-1
 0 341 l 1,23,-1
 0 0 l 1,0,-1
EndSplineSet
Validated: 9
EndChar

StartChar: six
Encoding: 54 54 25
Width: 1365
GlyphClass: 1
Flags: W
LayerCount: 2
Fore
SplineSet
0 0 m 1,0,-1
 341 0 l 1,1,-1
 682 0 l 1,2,-1
 1024 0 l 1,3,-1
 1024 341 l 1,4,-1
 1024 682 l 1,5,-1
 1024 1024 l 1,6,-1
 682 1024 l 1,7,-1
 341 1024 l 1,8,-1
 341 1365 l 1,9,-1
 682 1365 l 1,10,-1
 1024 1365 l 1,11,-1
 1024 1706 l 1,12,-1
 682 1706 l 1,13,-1
 341 1706 l 1,14,-1
 0 1706 l 1,15,-1
 0 1365 l 1,16,-1
 0 1024 l 1,17,-1
 0 682 l 1,18,-1
 0 341 l 1,19,-1
 0 0 l 1,0,-1
341 341 m 1,20,-1
 341 682 l 1,21,-1
 682 682 l 1,22,-1
 682 341 l 1,23,-1
 341 341 l 1,20,-1
EndSplineSet
Validated: 9
EndChar

StartChar: seven
Encoding: 55 55 26
Width: 1365
GlyphClass: 1
Flags: W
LayerCount: 2
Fore
SplineSet
0 1365 m 1,0,-1
 341 1365 l 1,1,-1
 682 1365 l 1,2,-1
 682 1024 l 1,3,-1
 682 682 l 1,4,-1
 682 341 l 1,5,-1
 682 0 l 1,6,-1
 1024 0 l 1,7,-1
 1024 341 l 1,8,-1
 1024 682 l 1,9,-1
 1024 1024 l 1,10,-1
 1024 1365 l 1,11,-1
 1024 1706 l 1,12,-1
 682 1706 l 1,13,-1
 341 1706 l 1,14,-1
 0 1706 l 1,15,-1
 0 1365 l 1,0,-1
EndSplineSet
Validated: 9
EndChar

StartChar: eight
Encoding: 56 56 27
Width: 1365
GlyphClass: 1
Flags: W
LayerCount: 2
Fore
SplineSet
0 0 m 1,0,-1
 341 0 l 1,1,-1
 682 0 l 1,2,-1
 1024 0 l 1,3,-1
 1024 341 l 1,4,-1
 1024 682 l 1,5,-1
 1024 1024 l 1,6,-1
 1024 1365 l 1,7,-1
 1024 1706 l 1,8,-1
 682 1706 l 1,9,-1
 341 1706 l 1,10,-1
 0 1706 l 1,11,-1
 0 1365 l 1,12,-1
 0 1024 l 1,13,-1
 0 682 l 1,14,-1
 0 341 l 1,15,-1
 0 0 l 1,0,-1
341 341 m 1,16,-1
 341 682 l 1,17,-1
 682 682 l 1,18,-1
 682 341 l 1,19,-1
 341 341 l 1,16,-1
341 1024 m 1,20,-1
 341 1365 l 1,21,-1
 682 1365 l 1,22,-1
 682 1024 l 1,23,-1
 341 1024 l 1,20,-1
EndSplineSet
Validated: 9
EndChar

StartChar: nine
Encoding: 57 57 28
Width: 1365
GlyphClass: 1
Flags: W
LayerCount: 2
Fore
SplineSet
0 0 m 1,0,-1
 341 0 l 1,1,-1
 682 0 l 1,2,-1
 1024 0 l 1,3,-1
 1024 341 l 1,4,-1
 1024 682 l 1,5,-1
 1024 1024 l 1,6,-1
 1024 1365 l 1,7,-1
 1024 1706 l 1,8,-1
 682 1706 l 1,9,-1
 341 1706 l 1,10,-1
 0 1706 l 1,11,-1
 0 1365 l 1,12,-1
 0 1024 l 1,13,-1
 0 682 l 1,14,-1
 341 682 l 1,15,-1
 682 682 l 1,16,-1
 682 341 l 1,17,-1
 341 341 l 1,18,-1
 0 341 l 1,19,-1
 0 0 l 1,0,-1
341 1024 m 1,20,-1
 341 1365 l 1,21,-1
 682 1365 l 1,22,-1
 682 1024 l 1,23,-1
 341 1024 l 1,20,-1
EndSplineSet
Validated: 9
EndChar

StartChar: colon
Encoding: 58 58 29
Width: 682
GlyphClass: 1
Flags: W
LayerCount: 2
Fore
SplineSet
0 341 m 1,0,-1
 341 341 l 1,1,-1
 341 682 l 1,2,-1
 0 682 l 1,3,-1
 0 341 l 1,0,-1
0 1024 m 1,4,-1
 341 1024 l 1,5,-1
 341 1365 l 1,6,-1
 0 1365 l 1,7,-1
 0 1024 l 1,4,-1
EndSplineSet
Validated: 9
EndChar

StartChar: semicolon
Encoding: 59 59 30
Width: 1023
GlyphClass: 1
Flags: W
LayerCount: 2
Fore
SplineSet
0 0 m 1,0,-1
 341 0 l 1,1,-1
 341 341 l 1,2,-1
 0 341 l 1,3,-1
 0 0 l 1,0,-1
341 341 m 1,4,-1
 682 341 l 1,5,-1
 682 682 l 1,6,-1
 341 682 l 1,7,-1
 341 341 l 1,4,-1
341 1024 m 1,8,-1
 682 1024 l 1,9,-1
 682 1365 l 1,10,-1
 341 1365 l 1,11,-1
 341 1024 l 1,8,-1
EndSplineSet
Validated: 5
EndChar

StartChar: less
Encoding: 60 60 31
Width: 1365
GlyphClass: 1
Flags: W
LayerCount: 2
Fore
SplineSet
0 682 m 1,0,-1
 341 682 l 1,1,-1
 341 1024 l 1,2,-1
 0 1024 l 1,3,-1
 0 682 l 1,0,-1
341 341 m 1,4,-1
 682 341 l 1,5,-1
 682 682 l 1,6,-1
 341 682 l 1,7,-1
 341 341 l 1,4,-1
341 1024 m 1,8,-1
 682 1024 l 1,9,-1
 682 1365 l 1,10,-1
 341 1365 l 1,11,-1
 341 1024 l 1,8,-1
682 0 m 1,12,-1
 1024 0 l 1,13,-1
 1024 341 l 1,14,-1
 682 341 l 1,15,-1
 682 0 l 1,12,-1
682 1365 m 1,16,-1
 1024 1365 l 1,17,-1
 1024 1706 l 1,18,-1
 682 1706 l 1,19,-1
 682 1365 l 1,16,-1
EndSplineSet
Validated: 5
EndChar

StartChar: equal
Encoding: 61 61 32
Width: 1365
GlyphClass: 1
Flags: W
LayerCount: 2
Fore
SplineSet
0 341 m 1,0,-1
 341 341 l 1,1,-1
 682 341 l 1,2,-1
 1024 341 l 1,3,-1
 1024 682 l 1,4,-1
 682 682 l 1,5,-1
 341 682 l 1,6,-1
 0 682 l 1,7,-1
 0 341 l 1,0,-1
0 1024 m 1,8,-1
 341 1024 l 1,9,-1
 682 1024 l 1,10,-1
 1024 1024 l 1,11,-1
 1024 1365 l 1,12,-1
 682 1365 l 1,13,-1
 341 1365 l 1,14,-1
 0 1365 l 1,15,-1
 0 1024 l 1,8,-1
EndSplineSet
Validated: 9
EndChar

StartChar: greater
Encoding: 62 62 33
Width: 1365
GlyphClass: 1
Flags: W
LayerCount: 2
Fore
SplineSet
0 0 m 1,0,-1
 341 0 l 1,1,-1
 341 341 l 1,2,-1
 0 341 l 1,3,-1
 0 0 l 1,0,-1
0 1365 m 1,4,-1
 341 1365 l 1,5,-1
 341 1706 l 1,6,-1
 0 1706 l 1,7,-1
 0 1365 l 1,4,-1
341 341 m 1,8,-1
 682 341 l 1,9,-1
 682 682 l 1,10,-1
 341 682 l 1,11,-1
 341 341 l 1,8,-1
341 1024 m 1,12,-1
 682 1024 l 1,13,-1
 682 1365 l 1,14,-1
 341 1365 l 1,15,-1
 341 1024 l 1,12,-1
682 682 m 1,16,-1
 1024 682 l 1,17,-1
 1024 1024 l 1,18,-1
 682 1024 l 1,19,-1
 682 682 l 1,16,-1
EndSplineSet
Validated: 5
EndChar

StartChar: question
Encoding: 63 63 34
Width: 1365
GlyphClass: 1
Flags: W
LayerCount: 2
Fore
SplineSet
0 1365 m 1,0,-1
 341 1365 l 1,1,-1
 682 1365 l 1,2,-1
 682 1024 l 1,3,-1
 341 1024 l 1,4,-1
 341 682 l 1,5,-1
 682 682 l 1,6,-1
 1024 682 l 1,7,-1
 1024 1024 l 1,8,-1
 1024 1365 l 1,9,-1
 1024 1706 l 1,10,-1
 682 1706 l 1,11,-1
 341 1706 l 1,12,-1
 0 1706 l 1,13,-1
 0 1365 l 1,0,-1
341 0 m 1,14,-1
 682 0 l 1,15,-1
 682 341 l 1,16,-1
 341 341 l 1,17,-1
 341 0 l 1,14,-1
EndSplineSet
Validated: 9
EndChar

StartChar: at
Encoding: 64 64 35
Width: 1365
GlyphClass: 1
Flags: W
LayerCount: 2
Fore
SplineSet
0 341 m 1,0,-1
 341 341 l 1,1,-1
 341 682 l 1,2,-1
 341 1024 l 1,3,-1
 341 1365 l 1,4,-1
 0 1365 l 1,5,-1
 0 1024 l 1,6,-1
 0 682 l 1,7,-1
 0 341 l 1,0,-1
341 0 m 1,8,-1
 682 0 l 1,9,-1
 1024 0 l 1,10,-1
 1024 341 l 1,11,-1
 682 341 l 1,12,-1
 341 341 l 1,13,-1
 341 0 l 1,8,-1
341 1365 m 1,14,-1
 682 1365 l 1,15,-1
 682 1706 l 1,16,-1
 341 1706 l 1,17,-1
 341 1365 l 1,14,-1
682 682 m 1,18,-1
 1024 682 l 1,19,-1
 1024 1024 l 1,20,-1
 1024 1365 l 1,21,-1
 682 1365 l 1,22,-1
 682 1024 l 1,23,-1
 682 682 l 1,18,-1
EndSplineSet
Validated: 5
EndChar

StartChar: A
Encoding: 65 65 36
Width: 1365
GlyphClass: 1
Flags: W
LayerCount: 2
Fore
SplineSet
0 0 m 1,0,-1
 341 0 l 1,1,-1
 341 341 l 1,2,-1
 341 682 l 1,3,-1
 682 682 l 1,4,-1
 682 341 l 1,5,-1
 682 0 l 1,6,-1
 1024 0 l 1,7,-1
 1024 341 l 1,8,-1
 1024 682 l 1,9,-1
 1024 1024 l 1,10,-1
 1024 1365 l 1,11,-1
 682 1365 l 1,12,-1
 682 1024 l 1,13,-1
 341 1024 l 1,14,-1
 341 1365 l 1,15,-1
 0 1365 l 1,16,-1
 0 1024 l 1,17,-1
 0 682 l 1,18,-1
 0 341 l 1,19,-1
 0 0 l 1,0,-1
341 1365 m 1,20,-1
 682 1365 l 1,21,-1
 682 1706 l 1,22,-1
 341 1706 l 1,23,-1
 341 1365 l 1,20,-1
EndSplineSet
Validated: 5
EndChar

StartChar: B
Encoding: 66 66 37
Width: 1365
GlyphClass: 1
Flags: W
LayerCount: 2
Fore
SplineSet
0 0 m 1,0,-1
 341 0 l 1,1,-1
 682 0 l 1,2,-1
 682 341 l 1,3,-1
 341 341 l 1,4,-1
 341 682 l 1,5,-1
 682 682 l 1,6,-1
 682 1024 l 1,7,-1
 341 1024 l 1,8,-1
 341 1365 l 1,9,-1
 682 1365 l 1,10,-1
 682 1706 l 1,11,-1
 341 1706 l 1,12,-1
 0 1706 l 1,13,-1
 0 1365 l 1,14,-1
 0 1024 l 1,15,-1
 0 682 l 1,16,-1
 0 341 l 1,17,-1
 0 0 l 1,0,-1
682 341 m 1,18,-1
 1024 341 l 1,19,-1
 1024 682 l 1,20,-1
 682 682 l 1,21,-1
 682 341 l 1,18,-1
682 1024 m 1,22,-1
 1024 1024 l 1,23,-1
 1024 1365 l 1,24,-1
 682 1365 l 1,25,-1
 682 1024 l 1,22,-1
EndSplineSet
Validated: 5
EndChar

StartChar: C
Encoding: 67 67 38
Width: 1365
GlyphClass: 1
Flags: W
LayerCount: 2
Fore
SplineSet
0 341 m 1,0,-1
 341 341 l 1,1,-1
 341 682 l 1,2,-1
 341 1024 l 1,3,-1
 341 1365 l 1,4,-1
 0 1365 l 1,5,-1
 0 1024 l 1,6,-1
 0 682 l 1,7,-1
 0 341 l 1,0,-1
341 0 m 1,8,-1
 682 0 l 1,9,-1
 1024 0 l 1,10,-1
 1024 341 l 1,11,-1
 682 341 l 1,12,-1
 341 341 l 1,13,-1
 341 0 l 1,8,-1
341 1365 m 1,14,-1
 682 1365 l 1,15,-1
 1024 1365 l 1,16,-1
 1024 1706 l 1,17,-1
 682 1706 l 1,18,-1
 341 1706 l 1,19,-1
 341 1365 l 1,14,-1
EndSplineSet
Validated: 5
EndChar

StartChar: D
Encoding: 68 68 39
Width: 1365
GlyphClass: 1
Flags: W
LayerCount: 2
Fore
SplineSet
0 0 m 1,0,-1
 341 0 l 1,1,-1
 682 0 l 1,2,-1
 682 341 l 1,3,-1
 341 341 l 1,4,-1
 341 682 l 1,5,-1
 341 1024 l 1,6,-1
 341 1365 l 1,7,-1
 682 1365 l 1,8,-1
 682 1706 l 1,9,-1
 341 1706 l 1,10,-1
 0 1706 l 1,11,-1
 0 1365 l 1,12,-1
 0 1024 l 1,13,-1
 0 682 l 1,14,-1
 0 341 l 1,15,-1
 0 0 l 1,0,-1
682 341 m 1,16,-1
 1024 341 l 1,17,-1
 1024 682 l 1,18,-1
 1024 1024 l 1,19,-1
 1024 1365 l 1,20,-1
 682 1365 l 1,21,-1
 682 1024 l 1,22,-1
 682 682 l 1,23,-1
 682 341 l 1,16,-1
EndSplineSet
Validated: 5
EndChar

StartChar: E
Encoding: 69 69 40
Width: 1365
GlyphClass: 1
Flags: W
LayerCount: 2
Fore
SplineSet
0 0 m 1,0,-1
 341 0 l 1,1,-1
 682 0 l 1,2,-1
 1024 0 l 1,3,-1
 1024 341 l 1,4,-1
 682 341 l 1,5,-1
 341 341 l 1,6,-1
 341 682 l 1,7,-1
 682 682 l 1,8,-1
 682 1024 l 1,9,-1
 341 1024 l 1,10,-1
 341 1365 l 1,11,-1
 682 1365 l 1,12,-1
 1024 1365 l 1,13,-1
 1024 1706 l 1,14,-1
 682 1706 l 1,15,-1
 341 1706 l 1,16,-1
 0 1706 l 1,17,-1
 0 1365 l 1,18,-1
 0 1024 l 1,19,-1
 0 682 l 1,20,-1
 0 341 l 1,21,-1
 0 0 l 1,0,-1
EndSplineSet
Validated: 9
EndChar

StartChar: F
Encoding: 70 70 41
Width: 1365
GlyphClass: 1
Flags: W
LayerCount: 2
Fore
SplineSet
0 0 m 1,0,-1
 341 0 l 1,1,-1
 341 341 l 1,2,-1
 341 682 l 1,3,-1
 682 682 l 1,4,-1
 682 1024 l 1,5,-1
 341 1024 l 1,6,-1
 341 1365 l 1,7,-1
 682 1365 l 1,8,-1
 1024 1365 l 1,9,-1
 1024 1706 l 1,10,-1
 682 1706 l 1,11,-1
 341 1706 l 1,12,-1
 0 1706 l 1,13,-1
 0 1365 l 1,14,-1
 0 1024 l 1,15,-1
 0 682 l 1,16,-1
 0 341 l 1,17,-1
 0 0 l 1,0,-1
EndSplineSet
Validated: 9
EndChar

StartChar: G
Encoding: 71 71 42
Width: 1365
GlyphClass: 1
Flags: W
LayerCount: 2
Fore
SplineSet
0 341 m 1,0,-1
 341 341 l 1,1,-1
 341 682 l 1,2,-1
 341 1024 l 1,3,-1
 341 1365 l 1,4,-1
 0 1365 l 1,5,-1
 0 1024 l 1,6,-1
 0 682 l 1,7,-1
 0 341 l 1,0,-1
341 0 m 1,8,-1
 682 0 l 1,9,-1
 1024 0 l 1,10,-1
 1024 341 l 1,11,-1
 1024 682 l 1,12,-1
 1024 1024 l 1,13,-1
 682 1024 l 1,14,-1
 682 682 l 1,15,-1
 682 341 l 1,16,-1
 341 341 l 1,17,-1
 341 0 l 1,8,-1
341 1365 m 1,18,-1
 682 1365 l 1,19,-1
 1024 1365 l 1,20,-1
 1024 1706 l 1,21,-1
 682 1706 l 1,22,-1
 341 1706 l 1,23,-1
 341 1365 l 1,18,-1
EndSplineSet
Validated: 5
EndChar

StartChar: H
Encoding: 72 72 43
Width: 1365
GlyphClass: 1
Flags: W
LayerCount: 2
Fore
SplineSet
0 0 m 1,0,-1
 341 0 l 1,1,-1
 341 341 l 1,2,-1
 341 682 l 1,3,-1
 682 682 l 1,4,-1
 682 341 l 1,5,-1
 682 0 l 1,6,-1
 1024 0 l 1,7,-1
 1024 341 l 1,8,-1
 1024 682 l 1,9,-1
 1024 1024 l 1,10,-1
 1024 1365 l 1,11,-1
 1024 1706 l 1,12,-1
 682 1706 l 1,13,-1
 682 1365 l 1,14,-1
 682 1024 l 1,15,-1
 341 1024 l 1,16,-1
 341 1365 l 1,17,-1
 341 1706 l 1,18,-1
 0 1706 l 1,19,-1
 0 1365 l 1,20,-1
 0 1024 l 1,21,-1
 0 682 l 1,22,-1
 0 341 l 1,23,-1
 0 0 l 1,0,-1
EndSplineSet
Validated: 9
EndChar

StartChar: I
Encoding: 73 73 44
Width: 682
GlyphClass: 1
Flags: W
LayerCount: 2
Fore
SplineSet
0 0 m 1,0,-1
 341 0 l 1,1,-1
 341 341 l 1,2,-1
 341 682 l 1,3,-1
 341 1024 l 1,4,-1
 341 1365 l 1,5,-1
 341 1706 l 1,6,-1
 0 1706 l 1,7,-1
 0 1365 l 1,8,-1
 0 1024 l 1,9,-1
 0 682 l 1,10,-1
 0 341 l 1,11,-1
 0 0 l 1,0,-1
EndSplineSet
Validated: 9
EndChar

StartChar: J
Encoding: 74 74 45
Width: 1365
GlyphClass: 1
Flags: W
LayerCount: 2
Fore
SplineSet
0 341 m 1,0,-1
 341 341 l 1,1,-1
 341 682 l 1,2,-1
 0 682 l 1,3,-1
 0 341 l 1,0,-1
341 0 m 1,4,-1
 682 0 l 1,5,-1
 682 341 l 1,6,-1
 341 341 l 1,7,-1
 341 0 l 1,4,-1
682 341 m 1,8,-1
 1024 341 l 1,9,-1
 1024 682 l 1,10,-1
 1024 1024 l 1,11,-1
 1024 1365 l 1,12,-1
 1024 1706 l 1,13,-1
 682 1706 l 1,14,-1
 682 1365 l 1,15,-1
 682 1024 l 1,16,-1
 682 682 l 1,17,-1
 682 341 l 1,8,-1
EndSplineSet
Validated: 5
EndChar

StartChar: K
Encoding: 75 75 46
Width: 1365
GlyphClass: 1
Flags: W
LayerCount: 2
Fore
SplineSet
0 0 m 1,0,-1
 341 0 l 1,1,-1
 341 341 l 1,2,-1
 341 682 l 1,3,-1
 682 682 l 1,4,-1
 682 1024 l 1,5,-1
 341 1024 l 1,6,-1
 341 1365 l 1,7,-1
 341 1706 l 1,8,-1
 0 1706 l 1,9,-1
 0 1365 l 1,10,-1
 0 1024 l 1,11,-1
 0 682 l 1,12,-1
 0 341 l 1,13,-1
 0 0 l 1,0,-1
682 0 m 1,14,-1
 1024 0 l 1,15,-1
 1024 341 l 1,16,-1
 1024 682 l 1,17,-1
 682 682 l 1,18,-1
 682 341 l 1,19,-1
 682 0 l 1,14,-1
682 1024 m 1,20,-1
 1024 1024 l 1,21,-1
 1024 1365 l 1,22,-1
 1024 1706 l 1,23,-1
 682 1706 l 1,24,-1
 682 1365 l 1,25,-1
 682 1024 l 1,20,-1
EndSplineSet
Validated: 5
EndChar

StartChar: L
Encoding: 76 76 47
Width: 1365
GlyphClass: 1
Flags: W
LayerCount: 2
Fore
SplineSet
0 0 m 1,0,-1
 341 0 l 1,1,-1
 682 0 l 1,2,-1
 1024 0 l 1,3,-1
 1024 341 l 1,4,-1
 682 341 l 1,5,-1
 341 341 l 1,6,-1
 341 682 l 1,7,-1
 341 1024 l 1,8,-1
 341 1365 l 1,9,-1
 341 1706 l 1,10,-1
 0 1706 l 1,11,-1
 0 1365 l 1,12,-1
 0 1024 l 1,13,-1
 0 682 l 1,14,-1
 0 341 l 1,15,-1
 0 0 l 1,0,-1
EndSplineSet
Validated: 9
EndChar

StartChar: M
Encoding: 77 77 48
Width: 1365
GlyphClass: 1
Flags: W
LayerCount: 2
Fore
SplineSet
0 0 m 1,0,-1
 341 0 l 1,1,-1
 341 341 l 1,2,-1
 341 682 l 1,3,-1
 682 682 l 1,4,-1
 682 341 l 1,5,-1
 682 0 l 1,6,-1
 1024 0 l 1,7,-1
 1024 341 l 1,8,-1
 1024 682 l 1,9,-1
 1024 1024 l 1,10,-1
 1024 1365 l 1,11,-1
 1024 1706 l 1,12,-1
 682 1706 l 1,13,-1
 682 1365 l 1,14,-1
 341 1365 l 1,15,-1
 341 1706 l 1,16,-1
 0 1706 l 1,17,-1
 0 1365 l 1,18,-1
 0 1024 l 1,19,-1
 0 682 l 1,20,-1
 0 341 l 1,21,-1
 0 0 l 1,0,-1
EndSplineSet
Validated: 9
EndChar

StartChar: N
Encoding: 78 78 49
Width: 1365
GlyphClass: 1
Flags: W
LayerCount: 2
Fore
SplineSet
0 0 m 1,0,-1
 341 0 l 1,1,-1
 341 341 l 1,2,-1
 341 682 l 1,3,-1
 341 1024 l 1,4,-1
 341 1365 l 1,5,-1
 682 1365 l 1,6,-1
 682 1024 l 1,7,-1
 682 682 l 1,8,-1
 682 341 l 1,9,-1
 682 0 l 1,10,-1
 1024 0 l 1,11,-1
 1024 341 l 1,12,-1
 1024 682 l 1,13,-1
 1024 1024 l 1,14,-1
 1024 1365 l 1,15,-1
 1024 1706 l 1,16,-1
 682 1706 l 1,17,-1
 341 1706 l 1,18,-1
 0 1706 l 1,19,-1
 0 1365 l 1,20,-1
 0 1024 l 1,21,-1
 0 682 l 1,22,-1
 0 341 l 1,23,-1
 0 0 l 1,0,-1
EndSplineSet
Validated: 9
EndChar

StartChar: O
Encoding: 79 79 50
Width: 1365
GlyphClass: 1
Flags: W
LayerCount: 2
Fore
SplineSet
0 341 m 1,0,-1
 341 341 l 1,1,-1
 341 682 l 1,2,-1
 341 1024 l 1,3,-1
 341 1365 l 1,4,-1
 0 1365 l 1,5,-1
 0 1024 l 1,6,-1
 0 682 l 1,7,-1
 0 341 l 1,0,-1
341 0 m 1,8,-1
 682 0 l 1,9,-1
 682 341 l 1,10,-1
 341 341 l 1,11,-1
 341 0 l 1,8,-1
341 1365 m 1,12,-1
 682 1365 l 1,13,-1
 682 1706 l 1,14,-1
 341 1706 l 1,15,-1
 341 1365 l 1,12,-1
682 341 m 1,16,-1
 1024 341 l 1,17,-1
 1024 682 l 1,18,-1
 1024 1024 l 1,19,-1
 1024 1365 l 1,20,-1
 682 1365 l 1,21,-1
 682 1024 l 1,22,-1
 682 682 l 1,23,-1
 682 341 l 1,16,-1
EndSplineSet
Validated: 5
EndChar

StartChar: P
Encoding: 80 80 51
Width: 1365
GlyphClass: 1
Flags: W
LayerCount: 2
Fore
SplineSet
0 0 m 1,0,-1
 341 0 l 1,1,-1
 341 341 l 1,2,-1
 341 682 l 1,3,-1
 682 682 l 1,4,-1
 1024 682 l 1,5,-1
 1024 1024 l 1,6,-1
 1024 1365 l 1,7,-1
 1024 1706 l 1,8,-1
 682 1706 l 1,9,-1
 341 1706 l 1,10,-1
 0 1706 l 1,11,-1
 0 1365 l 1,12,-1
 0 1024 l 1,13,-1
 0 682 l 1,14,-1
 0 341 l 1,15,-1
 0 0 l 1,0,-1
341 1024 m 1,16,-1
 341 1365 l 1,17,-1
 682 1365 l 1,18,-1
 682 1024 l 1,19,-1
 341 1024 l 1,16,-1
EndSplineSet
Validated: 9
EndChar

StartChar: Q
Encoding: 81 81 52
Width: 1365
GlyphClass: 1
Flags: W
LayerCount: 2
Fore
SplineSet
0 341 m 1,0,-1
 341 341 l 1,1,-1
 341 0 l 1,2,-1
 682 0 l 1,3,-1
 1024 0 l 1,4,-1
 1024 341 l 1,5,-1
 682 341 l 1,6,-1
 682 682 l 1,7,-1
 341 682 l 1,8,-1
 341 1024 l 1,9,-1
 341 1365 l 1,10,-1
 0 1365 l 1,11,-1
 0 1024 l 1,12,-1
 0 682 l 1,13,-1
 0 341 l 1,0,-1
341 1365 m 1,14,-1
 682 1365 l 1,15,-1
 682 1024 l 1,16,-1
 682 682 l 1,17,-1
 1024 682 l 1,18,-1
 1024 1024 l 1,19,-1
 1024 1365 l 1,20,-1
 1024 1706 l 1,21,-1
 682 1706 l 1,22,-1
 341 1706 l 1,23,-1
 341 1365 l 1,14,-1
EndSplineSet
Validated: 5
EndChar

StartChar: R
Encoding: 82 82 53
Width: 1365
GlyphClass: 1
Flags: W
LayerCount: 2
Fore
SplineSet
0 0 m 1,0,-1
 341 0 l 1,1,-1
 341 341 l 1,2,-1
 341 682 l 1,3,-1
 682 682 l 1,4,-1
 682 1024 l 1,5,-1
 341 1024 l 1,6,-1
 341 1365 l 1,7,-1
 682 1365 l 1,8,-1
 682 1024 l 1,9,-1
 1024 1024 l 1,10,-1
 1024 1365 l 1,11,-1
 1024 1706 l 1,12,-1
 682 1706 l 1,13,-1
 341 1706 l 1,14,-1
 0 1706 l 1,15,-1
 0 1365 l 1,16,-1
 0 1024 l 1,17,-1
 0 682 l 1,18,-1
 0 341 l 1,19,-1
 0 0 l 1,0,-1
682 0 m 1,20,-1
 1024 0 l 1,21,-1
 1024 341 l 1,22,-1
 1024 682 l 1,23,-1
 682 682 l 1,24,-1
 682 341 l 1,25,-1
 682 0 l 1,20,-1
EndSplineSet
Validated: 5
EndChar

StartChar: S
Encoding: 83 83 54
Width: 1365
GlyphClass: 1
Flags: W
LayerCount: 2
Fore
SplineSet
0 0 m 1,0,-1
 341 0 l 1,1,-1
 682 0 l 1,2,-1
 682 341 l 1,3,-1
 341 341 l 1,4,-1
 0 341 l 1,5,-1
 0 0 l 1,0,-1
0 682 m 1,6,-1
 341 682 l 1,7,-1
 682 682 l 1,8,-1
 682 341 l 1,9,-1
 1024 341 l 1,10,-1
 1024 682 l 1,11,-1
 1024 1024 l 1,12,-1
 682 1024 l 1,13,-1
 341 1024 l 1,14,-1
 341 1365 l 1,15,-1
 0 1365 l 1,16,-1
 0 1024 l 1,17,-1
 0 682 l 1,6,-1
341 1365 m 1,18,-1
 682 1365 l 1,19,-1
 1024 1365 l 1,20,-1
 1024 1706 l 1,21,-1
 682 1706 l 1,22,-1
 341 1706 l 1,23,-1
 341 1365 l 1,18,-1
EndSplineSet
Validated: 5
EndChar

StartChar: T
Encoding: 84 84 55
Width: 1365
GlyphClass: 1
Flags: W
LayerCount: 2
Fore
SplineSet
0 1365 m 1,0,-1
 341 1365 l 1,1,-1
 341 1024 l 1,2,-1
 341 682 l 1,3,-1
 341 341 l 1,4,-1
 341 0 l 1,5,-1
 682 0 l 1,6,-1
 682 341 l 1,7,-1
 682 682 l 1,8,-1
 682 1024 l 1,9,-1
 682 1365 l 1,10,-1
 1024 1365 l 1,11,-1
 1024 1706 l 1,12,-1
 682 1706 l 1,13,-1
 341 1706 l 1,14,-1
 0 1706 l 1,15,-1
 0 1365 l 1,0,-1
EndSplineSet
Validated: 9
EndChar

StartChar: U
Encoding: 85 85 56
Width: 1365
GlyphClass: 1
Flags: W
LayerCount: 2
Fore
SplineSet
0 0 m 1,0,-1
 341 0 l 1,1,-1
 682 0 l 1,2,-1
 1024 0 l 1,3,-1
 1024 341 l 1,4,-1
 1024 682 l 1,5,-1
 1024 1024 l 1,6,-1
 1024 1365 l 1,7,-1
 1024 1706 l 1,8,-1
 682 1706 l 1,9,-1
 682 1365 l 1,10,-1
 682 1024 l 1,11,-1
 682 682 l 1,12,-1
 682 341 l 1,13,-1
 341 341 l 1,14,-1
 341 682 l 1,15,-1
 341 1024 l 1,16,-1
 341 1365 l 1,17,-1
 341 1706 l 1,18,-1
 0 1706 l 1,19,-1
 0 1365 l 1,20,-1
 0 1024 l 1,21,-1
 0 682 l 1,22,-1
 0 341 l 1,23,-1
 0 0 l 1,0,-1
EndSplineSet
Validated: 9
EndChar

StartChar: V
Encoding: 86 86 57
Width: 1365
GlyphClass: 1
Flags: W
LayerCount: 2
Fore
SplineSet
0 682 m 1,0,-1
 341 682 l 1,1,-1
 341 1024 l 1,2,-1
 341 1365 l 1,3,-1
 341 1706 l 1,4,-1
 0 1706 l 1,5,-1
 0 1365 l 1,6,-1
 0 1024 l 1,7,-1
 0 682 l 1,0,-1
341 0 m 1,8,-1
 682 0 l 1,9,-1
 682 341 l 1,10,-1
 682 682 l 1,11,-1
 341 682 l 1,12,-1
 341 341 l 1,13,-1
 341 0 l 1,8,-1
682 682 m 1,14,-1
 1024 682 l 1,15,-1
 1024 1024 l 1,16,-1
 1024 1365 l 1,17,-1
 1024 1706 l 1,18,-1
 682 1706 l 1,19,-1
 682 1365 l 1,20,-1
 682 1024 l 1,21,-1
 682 682 l 1,14,-1
EndSplineSet
Validated: 5
EndChar

StartChar: W
Encoding: 87 87 58
Width: 1365
GlyphClass: 1
Flags: W
LayerCount: 2
Fore
SplineSet
0 0 m 1,0,-1
 341 0 l 1,1,-1
 341 341 l 1,2,-1
 682 341 l 1,3,-1
 682 0 l 1,4,-1
 1024 0 l 1,5,-1
 1024 341 l 1,6,-1
 1024 682 l 1,7,-1
 1024 1024 l 1,8,-1
 1024 1365 l 1,9,-1
 1024 1706 l 1,10,-1
 682 1706 l 1,11,-1
 682 1365 l 1,12,-1
 682 1024 l 1,13,-1
 341 1024 l 1,14,-1
 341 1365 l 1,15,-1
 341 1706 l 1,16,-1
 0 1706 l 1,17,-1
 0 1365 l 1,18,-1
 0 1024 l 1,19,-1
 0 682 l 1,20,-1
 0 341 l 1,21,-1
 0 0 l 1,0,-1
EndSplineSet
Validated: 9
EndChar

StartChar: X
Encoding: 88 88 59
Width: 1365
GlyphClass: 1
Flags: W
LayerCount: 2
Fore
SplineSet
0 0 m 1,0,-1
 341 0 l 1,1,-1
 341 341 l 1,2,-1
 341 682 l 1,3,-1
 0 682 l 1,4,-1
 0 341 l 1,5,-1
 0 0 l 1,0,-1
0 1024 m 1,6,-1
 341 1024 l 1,7,-1
 341 1365 l 1,8,-1
 341 1706 l 1,9,-1
 0 1706 l 1,10,-1
 0 1365 l 1,11,-1
 0 1024 l 1,6,-1
341 682 m 1,12,-1
 682 682 l 1,13,-1
 682 1024 l 1,14,-1
 341 1024 l 1,15,-1
 341 682 l 1,12,-1
682 0 m 1,16,-1
 1024 0 l 1,17,-1
 1024 341 l 1,18,-1
 1024 682 l 1,19,-1
 682 682 l 1,20,-1
 682 341 l 1,21,-1
 682 0 l 1,16,-1
682 1024 m 1,22,-1
 1024 1024 l 1,23,-1
 1024 1365 l 1,24,-1
 1024 1706 l 1,25,-1
 682 1706 l 1,26,-1
 682 1365 l 1,27,-1
 682 1024 l 1,22,-1
EndSplineSet
Validated: 5
EndChar

StartChar: Y
Encoding: 89 89 60
Width: 1365
GlyphClass: 1
Flags: W
LayerCount: 2
Fore
SplineSet
0 1024 m 1,0,-1
 341 1024 l 1,1,-1
 341 1365 l 1,2,-1
 341 1706 l 1,3,-1
 0 1706 l 1,4,-1
 0 1365 l 1,5,-1
 0 1024 l 1,0,-1
341 0 m 1,6,-1
 682 0 l 1,7,-1
 682 341 l 1,8,-1
 682 682 l 1,9,-1
 682 1024 l 1,10,-1
 341 1024 l 1,11,-1
 341 682 l 1,12,-1
 341 341 l 1,13,-1
 341 0 l 1,6,-1
682 1024 m 1,14,-1
 1024 1024 l 1,15,-1
 1024 1365 l 1,16,-1
 1024 1706 l 1,17,-1
 682 1706 l 1,18,-1
 682 1365 l 1,19,-1
 682 1024 l 1,14,-1
EndSplineSet
Validated: 5
EndChar

StartChar: Z
Encoding: 90 90 61
Width: 1365
GlyphClass: 1
Flags: W
LayerCount: 2
Fore
SplineSet
0 0 m 1,0,-1
 341 0 l 1,1,-1
 682 0 l 1,2,-1
 1024 0 l 1,3,-1
 1024 341 l 1,4,-1
 682 341 l 1,5,-1
 341 341 l 1,6,-1
 341 682 l 1,7,-1
 0 682 l 1,8,-1
 0 341 l 1,9,-1
 0 0 l 1,0,-1
0 1365 m 1,10,-1
 341 1365 l 1,11,-1
 682 1365 l 1,12,-1
 682 1024 l 1,13,-1
 1024 1024 l 1,14,-1
 1024 1365 l 1,15,-1
 1024 1706 l 1,16,-1
 682 1706 l 1,17,-1
 341 1706 l 1,18,-1
 0 1706 l 1,19,-1
 0 1365 l 1,10,-1
341 682 m 1,20,-1
 682 682 l 1,21,-1
 682 1024 l 1,22,-1
 341 1024 l 1,23,-1
 341 682 l 1,20,-1
EndSplineSet
Validated: 5
EndChar

StartChar: bracketleft
Encoding: 91 91 62
Width: 1365
GlyphClass: 1
Flags: W
LayerCount: 2
Fore
SplineSet
0 0 m 1,0,-1
 341 0 l 1,1,-1
 682 0 l 1,2,-1
 682 341 l 1,3,-1
 341 341 l 1,4,-1
 341 682 l 1,5,-1
 341 1024 l 1,6,-1
 341 1365 l 1,7,-1
 682 1365 l 1,8,-1
 682 1706 l 1,9,-1
 341 1706 l 1,10,-1
 0 1706 l 1,11,-1
 0 1365 l 1,12,-1
 0 1024 l 1,13,-1
 0 682 l 1,14,-1
 0 341 l 1,15,-1
 0 0 l 1,0,-1
EndSplineSet
Validated: 9
EndChar

StartChar: backslash
Encoding: 92 92 63
Width: 1365
GlyphClass: 1
Flags: W
LayerCount: 2
Fore
SplineSet
0 1024 m 1,0,-1
 341 1024 l 1,1,-1
 341 1365 l 1,2,-1
 341 1706 l 1,3,-1
 0 1706 l 1,4,-1
 0 1365 l 1,5,-1
 0 1024 l 1,0,-1
341 682 m 1,6,-1
 682 682 l 1,7,-1
 682 1024 l 1,8,-1
 341 1024 l 1,9,-1
 341 682 l 1,6,-1
682 0 m 1,10,-1
 1024 0 l 1,11,-1
 1024 341 l 1,12,-1
 1024 682 l 1,13,-1
 682 682 l 1,14,-1
 682 341 l 1,15,-1
 682 0 l 1,10,-1
EndSplineSet
Validated: 5
EndChar

StartChar: bracketright
Encoding: 93 93 64
Width: 1365
GlyphClass: 1
Flags: W
LayerCount: 2
Fore
SplineSet
341 0 m 1,0,-1
 682 0 l 1,1,-1
 1024 0 l 1,2,-1
 1024 341 l 1,3,-1
 1024 682 l 1,4,-1
 1024 1024 l 1,5,-1
 1024 1365 l 1,6,-1
 1024 1706 l 1,7,-1
 682 1706 l 1,8,-1
 341 1706 l 1,9,-1
 341 1365 l 1,10,-1
 682 1365 l 1,11,-1
 682 1024 l 1,12,-1
 682 682 l 1,13,-1
 682 341 l 1,14,-1
 341 341 l 1,15,-1
 341 0 l 1,0,-1
EndSplineSet
Validated: 9
EndChar

StartChar: asciicircum
Encoding: 94 94 65
Width: 1365
GlyphClass: 1
Flags: W
LayerCount: 2
Fore
SplineSet
0 1024 m 1,0,-1
 341 1024 l 1,1,-1
 341 1365 l 1,2,-1
 0 1365 l 1,3,-1
 0 1024 l 1,0,-1
341 1365 m 1,4,-1
 682 1365 l 1,5,-1
 682 1706 l 1,6,-1
 341 1706 l 1,7,-1
 341 1365 l 1,4,-1
682 1024 m 1,8,-1
 1024 1024 l 1,9,-1
 1024 1365 l 1,10,-1
 682 1365 l 1,11,-1
 682 1024 l 1,8,-1
EndSplineSet
Validated: 5
EndChar

StartChar: underscore
Encoding: 95 95 66
Width: 1365
GlyphClass: 1
Flags: W
LayerCount: 2
Fore
SplineSet
0 0 m 1,0,-1
 341 0 l 1,1,-1
 682 0 l 1,2,-1
 1024 0 l 1,3,-1
 1024 341 l 1,4,-1
 682 341 l 1,5,-1
 341 341 l 1,6,-1
 0 341 l 1,7,-1
 0 0 l 1,0,-1
EndSplineSet
Validated: 9
EndChar

StartChar: grave
Encoding: 96 96 67
Width: 1023
GlyphClass: 1
Flags: W
LayerCount: 2
Fore
SplineSet
0 1024 m 1,0,-1
 341 1024 l 1,1,-1
 341 1365 l 1,2,-1
 0 1365 l 1,3,-1
 0 1024 l 1,0,-1
341 682 m 1,4,-1
 682 682 l 1,5,-1
 682 1024 l 1,6,-1
 341 1024 l 1,7,-1
 341 682 l 1,4,-1
EndSplineSet
Validated: 5
EndChar

StartChar: a
Encoding: 97 97 68
Width: 1365
GlyphClass: 1
Flags: W
LayerCount: 2
Fore
SplineSet
0 341 m 1,0,-1
 341 341 l 1,1,-1
 341 682 l 1,2,-1
 341 1024 l 1,3,-1
 0 1024 l 1,4,-1
 0 682 l 1,5,-1
 0 341 l 1,0,-1
341 0 m 1,6,-1
 682 0 l 1,7,-1
 1024 0 l 1,8,-1
 1024 341 l 1,9,-1
 1024 682 l 1,10,-1
 1024 1024 l 1,11,-1
 1024 1365 l 1,12,-1
 682 1365 l 1,13,-1
 341 1365 l 1,14,-1
 341 1024 l 1,15,-1
 682 1024 l 1,16,-1
 682 682 l 1,17,-1
 682 341 l 1,18,-1
 341 341 l 1,19,-1
 341 0 l 1,6,-1
EndSplineSet
Validated: 5
EndChar

StartChar: b
Encoding: 98 98 69
Width: 1365
GlyphClass: 1
Flags: W
LayerCount: 2
Fore
SplineSet
0 0 m 1,0,-1
 341 0 l 1,1,-1
 682 0 l 1,2,-1
 682 341 l 1,3,-1
 341 341 l 1,4,-1
 341 682 l 1,5,-1
 341 1024 l 1,6,-1
 682 1024 l 1,7,-1
 682 1365 l 1,8,-1
 341 1365 l 1,9,-1
 341 1706 l 1,10,-1
 0 1706 l 1,11,-1
 0 1365 l 1,12,-1
 0 1024 l 1,13,-1
 0 682 l 1,14,-1
 0 341 l 1,15,-1
 0 0 l 1,0,-1
682 341 m 1,16,-1
 1024 341 l 1,17,-1
 1024 682 l 1,18,-1
 1024 1024 l 1,19,-1
 682 1024 l 1,20,-1
 682 682 l 1,21,-1
 682 341 l 1,16,-1
EndSplineSet
Validated: 5
EndChar

StartChar: c
Encoding: 99 99 70
Width: 1365
GlyphClass: 1
Flags: W
LayerCount: 2
Fore
SplineSet
0 341 m 1,0,-1
 341 341 l 1,1,-1
 341 682 l 1,2,-1
 341 1024 l 1,3,-1
 0 1024 l 1,4,-1
 0 682 l 1,5,-1
 0 341 l 1,0,-1
341 0 m 1,6,-1
 682 0 l 1,7,-1
 1024 0 l 1,8,-1
 1024 341 l 1,9,-1
 682 341 l 1,10,-1
 341 341 l 1,11,-1
 341 0 l 1,6,-1
341 1024 m 1,12,-1
 682 1024 l 1,13,-1
 1024 1024 l 1,14,-1
 1024 1365 l 1,15,-1
 682 1365 l 1,16,-1
 341 1365 l 1,17,-1
 341 1024 l 1,12,-1
EndSplineSet
Validated: 5
EndChar

StartChar: d
Encoding: 100 100 71
Width: 1365
GlyphClass: 1
Flags: W
LayerCount: 2
Fore
SplineSet
0 341 m 1,0,-1
 341 341 l 1,1,-1
 341 682 l 1,2,-1
 341 1024 l 1,3,-1
 0 1024 l 1,4,-1
 0 682 l 1,5,-1
 0 341 l 1,0,-1
341 0 m 1,6,-1
 682 0 l 1,7,-1
 1024 0 l 1,8,-1
 1024 341 l 1,9,-1
 1024 682 l 1,10,-1
 1024 1024 l 1,11,-1
 1024 1365 l 1,12,-1
 1024 1706 l 1,13,-1
 682 1706 l 1,14,-1
 682 1365 l 1,15,-1
 341 1365 l 1,16,-1
 341 1024 l 1,17,-1
 682 1024 l 1,18,-1
 682 682 l 1,19,-1
 682 341 l 1,20,-1
 341 341 l 1,21,-1
 341 0 l 1,6,-1
EndSplineSet
Validated: 5
EndChar

StartChar: e
Encoding: 101 101 72
Width: 1365
GlyphClass: 1
Flags: W
LayerCount: 2
Fore
SplineSet
0 341 m 1,0,-1
 341 341 l 1,1,-1
 341 0 l 1,2,-1
 682 0 l 1,3,-1
 1024 0 l 1,4,-1
 1024 341 l 1,5,-1
 682 341 l 1,6,-1
 682 682 l 1,7,-1
 341 682 l 1,8,-1
 341 1024 l 1,9,-1
 0 1024 l 1,10,-1
 0 682 l 1,11,-1
 0 341 l 1,0,-1
341 1024 m 1,12,-1
 682 1024 l 1,13,-1
 682 1365 l 1,14,-1
 341 1365 l 1,15,-1
 341 1024 l 1,12,-1
682 682 m 1,16,-1
 1024 682 l 1,17,-1
 1024 1024 l 1,18,-1
 682 1024 l 1,19,-1
 682 682 l 1,16,-1
EndSplineSet
Validated: 5
EndChar

StartChar: f
Encoding: 102 102 73
Width: 1024
GlyphClass: 1
Flags: W
LayerCount: 2
Fore
SplineSet
0 682 m 1,0,-1
 0 341 l 1,1,-1
 0 0 l 1,2,-1
 341 0 l 1,3,-1
 341 341 l 1,4,-1
 341 682 l 1,5,-1
 683 682 l 1,6,-1
 683 1024 l 1,7,-1
 341 1024 l 1,8,-1
 341 1365 l 1,9,-1
 0 1365 l 1,10,-1
 0 1024 l 1,11,12
 0 1024 0 1024 0 682 c 1,0,-1
341 1365 m 1,13,-1
 683 1365 l 1,14,-1
 683 1706 l 1,15,-1
 341 1706 l 1,16,-1
 341 1365 l 1,13,-1
EndSplineSet
Validated: 5
EndChar

StartChar: g
Encoding: 103 103 74
Width: 1365
GlyphClass: 1
Flags: W
LayerCount: 2
Fore
SplineSet
0 682 m 1,0,-1
 341 682 l 1,1,-1
 341 1024 l 1,2,-1
 0 1024 l 1,3,-1
 0 682 l 1,0,-1
341 -342 m 1,4,-1
 682 -342 l 1,5,-1
 682 0 l 1,6,-1
 341 0 l 1,7,-1
 341 -342 l 1,4,-1
341 341 m 1,8,-1
 682 341 l 1,9,-1
 682 0 l 1,10,-1
 1024 0 l 1,11,-1
 1024 341 l 1,12,-1
 1024 682 l 1,13,-1
 1024 1024 l 1,14,-1
 682 1024 l 1,15,-1
 682 682 l 1,16,-1
 341 682 l 1,17,-1
 341 341 l 1,8,-1
341 1024 m 1,18,-1
 682 1024 l 1,19,-1
 682 1365 l 1,20,-1
 341 1365 l 1,21,-1
 341 1024 l 1,18,-1
EndSplineSet
EndChar

StartChar: h
Encoding: 104 104 75
Width: 1365
GlyphClass: 1
Flags: W
LayerCount: 2
Fore
SplineSet
0 0 m 1,0,-1
 341 0 l 1,1,-1
 341 341 l 1,2,-1
 341 682 l 1,3,-1
 682 682 l 1,4,-1
 682 1024 l 1,5,-1
 341 1024 l 1,6,-1
 341 1365 l 1,7,-1
 341 1706 l 1,8,-1
 0 1706 l 1,9,-1
 0 1365 l 1,10,-1
 0 1024 l 1,11,-1
 0 682 l 1,12,-1
 0 341 l 1,13,-1
 0 0 l 1,0,-1
682 0 m 1,14,-1
 1024 0 l 1,15,-1
 1024 341 l 1,16,-1
 1024 682 l 1,17,-1
 682 682 l 1,18,-1
 682 341 l 1,19,-1
 682 0 l 1,14,-1
EndSplineSet
Validated: 5
EndChar

StartChar: i
Encoding: 105 105 76
Width: 682
GlyphClass: 1
Flags: W
LayerCount: 2
Fore
SplineSet
0 0 m 1,0,-1
 341 0 l 1,1,-1
 341 341 l 1,2,-1
 341 682 l 1,3,-1
 341 1024 l 1,4,-1
 0 1024 l 1,5,-1
 0 682 l 1,6,-1
 0 341 l 1,7,-1
 0 0 l 1,0,-1
0 1365 m 1,8,-1
 341 1365 l 1,9,-1
 341 1706 l 1,10,-1
 0 1706 l 1,11,-1
 0 1365 l 1,8,-1
EndSplineSet
EndChar

StartChar: j
Encoding: 106 106 77
Width: 1023
GlyphClass: 1
Flags: W
LayerCount: 2
Fore
SplineSet
0 -342 m 1,0,-1
 341 -342 l 1,1,-1
 341 0 l 1,2,-1
 0 0 l 1,3,-1
 0 -342 l 1,0,-1
341 0 m 1,4,-1
 682 0 l 1,5,-1
 682 341 l 1,6,-1
 682 682 l 1,7,-1
 341 682 l 1,8,-1
 341 341 l 1,9,-1
 341 0 l 1,4,-1
341 1024 m 1,10,-1
 682 1024 l 1,11,-1
 682 1365 l 1,12,-1
 341 1365 l 1,13,-1
 341 1024 l 1,10,-1
EndSplineSet
Validated: 5
EndChar

StartChar: k
Encoding: 107 107 78
Width: 1365
GlyphClass: 1
Flags: W
LayerCount: 2
Fore
SplineSet
0 0 m 1,0,-1
 341 0 l 1,1,-1
 341 341 l 1,2,-1
 341 682 l 1,3,-1
 682 682 l 1,4,-1
 682 1024 l 1,5,-1
 341 1024 l 1,6,-1
 341 1365 l 1,7,-1
 341 1706 l 1,8,-1
 0 1706 l 1,9,-1
 0 1365 l 1,10,-1
 0 1024 l 1,11,-1
 0 682 l 1,12,-1
 0 341 l 1,13,-1
 0 0 l 1,0,-1
682 0 m 1,14,-1
 1024 0 l 1,15,-1
 1024 341 l 1,16,-1
 1024 682 l 1,17,-1
 682 682 l 1,18,-1
 682 341 l 1,19,-1
 682 0 l 1,14,-1
682 1024 m 1,20,-1
 1024 1024 l 1,21,-1
 1024 1365 l 1,22,-1
 682 1365 l 1,23,-1
 682 1024 l 1,20,-1
EndSplineSet
Validated: 5
EndChar

StartChar: l
Encoding: 108 108 79
Width: 682
GlyphClass: 1
Flags: W
LayerCount: 2
Fore
SplineSet
0 0 m 1,0,-1
 341 0 l 1,1,-1
 341 341 l 1,2,-1
 341 682 l 1,3,-1
 341 1024 l 1,4,-1
 341 1365 l 1,5,-1
 341 1706 l 1,6,-1
 0 1706 l 1,7,-1
 0 1365 l 1,8,-1
 0 1024 l 1,9,-1
 0 682 l 1,10,-1
 0 341 l 1,11,-1
 0 0 l 1,0,-1
EndSplineSet
EndChar

StartChar: m
Encoding: 109 109 80
Width: 1365
GlyphClass: 1
Flags: W
LayerCount: 2
Fore
SplineSet
0 0 m 1,0,-1
 341 0 l 1,1,-1
 341 341 l 1,2,-1
 341 682 l 1,3,-1
 682 682 l 1,4,-1
 682 341 l 1,5,-1
 682 0 l 1,6,-1
 1024 0 l 1,7,-1
 1024 341 l 1,8,-1
 1024 682 l 1,9,-1
 1024 1024 l 1,10,-1
 1024 1365 l 1,11,-1
 682 1365 l 1,12,-1
 682 1024 l 1,13,-1
 341 1024 l 1,14,-1
 341 1365 l 1,15,-1
 0 1365 l 1,16,-1
 0 1024 l 1,17,-1
 0 682 l 1,18,-1
 0 341 l 1,19,-1
 0 0 l 1,0,-1
EndSplineSet
Validated: 9
EndChar

StartChar: n
Encoding: 110 110 81
Width: 1365
GlyphClass: 1
Flags: W
LayerCount: 2
Fore
SplineSet
0 0 m 1,0,-1
 341 0 l 1,1,-1
 341 341 l 1,2,-1
 341 682 l 1,3,-1
 341 1024 l 1,4,-1
 682 1024 l 1,5,-1
 682 1365 l 1,6,-1
 341 1365 l 1,7,-1
 0 1365 l 1,8,-1
 0 1024 l 1,9,-1
 0 682 l 1,10,-1
 0 341 l 1,11,-1
 0 0 l 1,0,-1
682 0 m 1,12,-1
 1024 0 l 1,13,-1
 1024 341 l 1,14,-1
 1024 682 l 1,15,-1
 1024 1024 l 1,16,-1
 682 1024 l 1,17,-1
 682 682 l 1,18,-1
 682 341 l 1,19,-1
 682 0 l 1,12,-1
EndSplineSet
Validated: 5
EndChar

StartChar: o
Encoding: 111 111 82
Width: 1365
GlyphClass: 1
Flags: W
LayerCount: 2
Fore
SplineSet
0 341 m 1,0,-1
 341 341 l 1,1,-1
 341 682 l 1,2,-1
 341 1024 l 1,3,-1
 0 1024 l 1,4,-1
 0 682 l 1,5,-1
 0 341 l 1,0,-1
341 0 m 1,6,-1
 682 0 l 1,7,-1
 682 341 l 1,8,-1
 341 341 l 1,9,-1
 341 0 l 1,6,-1
341 1024 m 1,10,-1
 682 1024 l 1,11,-1
 682 1365 l 1,12,-1
 341 1365 l 1,13,-1
 341 1024 l 1,10,-1
682 341 m 1,14,-1
 1024 341 l 1,15,-1
 1024 682 l 1,16,-1
 1024 1024 l 1,17,-1
 682 1024 l 1,18,-1
 682 682 l 1,19,-1
 682 341 l 1,14,-1
EndSplineSet
Validated: 5
EndChar

StartChar: p
Encoding: 112 112 83
Width: 1365
GlyphClass: 1
Flags: W
LayerCount: 2
Fore
SplineSet
0 -342 m 1,0,-1
 341 -342 l 1,1,-1
 341 0 l 1,2,-1
 682 0 l 1,3,-1
 682 341 l 1,4,-1
 341 341 l 1,5,-1
 341 682 l 1,6,-1
 341 1024 l 1,7,-1
 682 1024 l 1,8,-1
 682 1365 l 1,9,-1
 341 1365 l 1,10,-1
 0 1365 l 1,11,-1
 0 1024 l 1,12,-1
 0 682 l 1,13,-1
 0 341 l 1,14,-1
 0 0 l 1,15,-1
 0 -342 l 1,0,-1
682 341 m 1,16,-1
 1024 341 l 1,17,-1
 1024 682 l 1,18,-1
 1024 1024 l 1,19,-1
 682 1024 l 1,20,-1
 682 682 l 1,21,-1
 682 341 l 1,16,-1
EndSplineSet
Validated: 5
EndChar

StartChar: q
Encoding: 113 113 84
Width: 1365
GlyphClass: 1
Flags: W
LayerCount: 2
Fore
SplineSet
0 341 m 1,0,-1
 341 341 l 1,1,-1
 341 682 l 1,2,-1
 341 1024 l 1,3,-1
 0 1024 l 1,4,-1
 0 682 l 1,5,-1
 0 341 l 1,0,-1
341 0 m 1,6,-1
 682 0 l 1,7,-1
 682 -342 l 1,8,-1
 1024 -342 l 1,9,-1
 1024 0 l 1,10,-1
 1024 341 l 1,11,-1
 1024 682 l 1,12,-1
 1024 1024 l 1,13,-1
 1024 1365 l 1,14,-1
 682 1365 l 1,15,-1
 341 1365 l 1,16,-1
 341 1024 l 1,17,-1
 682 1024 l 1,18,-1
 682 682 l 1,19,-1
 682 341 l 1,20,-1
 341 341 l 1,21,-1
 341 0 l 1,6,-1
EndSplineSet
Validated: 5
EndChar

StartChar: r
Encoding: 114 114 85
Width: 1023
GlyphClass: 1
Flags: W
LayerCount: 2
Fore
SplineSet
0 0 m 1,0,-1
 341 0 l 1,1,-1
 341 341 l 1,2,-1
 341 682 l 1,3,-1
 341 1024 l 1,4,-1
 0 1024 l 1,5,-1
 0 682 l 1,6,-1
 0 341 l 1,7,-1
 0 0 l 1,0,-1
341 1024 m 1,8,-1
 682 1024 l 1,9,-1
 682 1365 l 1,10,-1
 341 1365 l 1,11,-1
 341 1024 l 1,8,-1
EndSplineSet
Validated: 5
EndChar

StartChar: s
Encoding: 115 115 86
Width: 1365
GlyphClass: 1
Flags: W
LayerCount: 2
Fore
SplineSet
0 0 m 1,0,-1
 341 0 l 1,1,-1
 682 0 l 1,2,-1
 682 341 l 1,3,-1
 341 341 l 1,4,-1
 0 341 l 1,5,-1
 0 0 l 1,0,-1
0 682 m 1,6,-1
 341 682 l 1,7,-1
 341 1024 l 1,8,-1
 0 1024 l 1,9,-1
 0 682 l 1,6,-1
341 1024 m 1,10,-1
 682 1024 l 1,11,-1
 1024 1024 l 1,12,-1
 1024 1365 l 1,13,-1
 682 1365 l 1,14,-1
 341 1365 l 1,15,-1
 341 1024 l 1,10,-1
682 341 m 1,16,-1
 1024 341 l 1,17,-1
 1024 682 l 1,18,-1
 682 682 l 1,19,-1
 682 341 l 1,16,-1
EndSplineSet
Validated: 5
EndChar

StartChar: t
Encoding: 116 116 87
Width: 1024
GlyphClass: 1
Flags: W
LayerCount: 2
Fore
SplineSet
341 341 m 1,0,-1
 683 341 l 1,1,-1
 683 0 l 1,2,-1
 341 0 l 1,3,-1
 341 341 l 1,0,-1
0 1024 m 1,4,-1
 0 682 l 1,5,-1
 0 341 l 1,6,7
 0 341 0 341 341 341 c 1,8,-1
 341 682 l 1,9,-1
 341 1024 l 1,10,-1
 683 1024 l 1,11,-1
 683 1365 l 1,12,-1
 341 1365 l 1,13,-1
 341 1706 l 1,14,-1
 0 1706 l 1,15,-1
 0 1365 l 1,16,17
 0 1365 0 1365 0 1024 c 1,4,-1
EndSplineSet
Validated: 5
EndChar

StartChar: u
Encoding: 117 117 88
Width: 1365
GlyphClass: 1
Flags: W
LayerCount: 2
Fore
SplineSet
0 341 m 1,0,-1
 341 341 l 1,1,-1
 341 682 l 1,2,-1
 341 1024 l 1,3,-1
 341 1365 l 1,4,-1
 0 1365 l 1,5,-1
 0 1024 l 1,6,-1
 0 682 l 1,7,-1
 0 341 l 1,0,-1
341 0 m 1,8,-1
 682 0 l 1,9,-1
 1024 0 l 1,10,-1
 1024 341 l 1,11,-1
 1024 682 l 1,12,-1
 1024 1024 l 1,13,-1
 1024 1365 l 1,14,-1
 682 1365 l 1,15,-1
 682 1024 l 1,16,-1
 682 682 l 1,17,-1
 682 341 l 1,18,-1
 341 341 l 1,19,-1
 341 0 l 1,8,-1
EndSplineSet
Validated: 5
EndChar

StartChar: v
Encoding: 118 118 89
Width: 1365
GlyphClass: 1
Flags: W
LayerCount: 2
Fore
SplineSet
0 682 m 1,0,-1
 341 682 l 1,1,-1
 341 1024 l 1,2,-1
 341 1365 l 1,3,-1
 0 1365 l 1,4,-1
 0 1024 l 1,5,-1
 0 682 l 1,0,-1
341 0 m 1,6,-1
 682 0 l 1,7,-1
 682 341 l 1,8,-1
 682 682 l 1,9,-1
 341 682 l 1,10,-1
 341 341 l 1,11,-1
 341 0 l 1,6,-1
682 682 m 1,12,-1
 1024 682 l 1,13,-1
 1024 1024 l 1,14,-1
 1024 1365 l 1,15,-1
 682 1365 l 1,16,-1
 682 1024 l 1,17,-1
 682 682 l 1,12,-1
EndSplineSet
Validated: 5
EndChar

StartChar: w
Encoding: 119 119 90
Width: 1365
GlyphClass: 1
Flags: W
LayerCount: 2
Fore
SplineSet
0 0 m 1,0,-1
 341 0 l 1,1,-1
 341 341 l 1,2,-1
 682 341 l 1,3,-1
 682 0 l 1,4,-1
 1024 0 l 1,5,-1
 1024 341 l 1,6,-1
 1024 682 l 1,7,-1
 1024 1024 l 1,8,-1
 1024 1365 l 1,9,-1
 682 1365 l 1,10,-1
 682 1024 l 1,11,-1
 682 682 l 1,12,-1
 341 682 l 1,13,-1
 341 1024 l 1,14,-1
 341 1365 l 1,15,-1
 0 1365 l 1,16,-1
 0 1024 l 1,17,-1
 0 682 l 1,18,-1
 0 341 l 1,19,-1
 0 0 l 1,0,-1
EndSplineSet
Validated: 9
EndChar

StartChar: x
Encoding: 120 120 91
Width: 1365
GlyphClass: 1
Flags: W
LayerCount: 2
Fore
SplineSet
0 0 m 1,0,-1
 341 0 l 1,1,-1
 341 341 l 1,2,-1
 0 341 l 1,3,-1
 0 0 l 1,0,-1
0 1024 m 1,4,-1
 341 1024 l 1,5,-1
 341 1365 l 1,6,-1
 0 1365 l 1,7,-1
 0 1024 l 1,4,-1
341 341 m 1,8,-1
 682 341 l 1,9,-1
 682 682 l 1,10,-1
 682 1024 l 1,11,-1
 341 1024 l 1,12,-1
 341 682 l 1,13,-1
 341 341 l 1,8,-1
682 0 m 1,14,-1
 1024 0 l 1,15,-1
 1024 341 l 1,16,-1
 682 341 l 1,17,-1
 682 0 l 1,14,-1
682 1024 m 1,18,-1
 1024 1024 l 1,19,-1
 1024 1365 l 1,20,-1
 682 1365 l 1,21,-1
 682 1024 l 1,18,-1
EndSplineSet
Validated: 5
EndChar

StartChar: y
Encoding: 121 121 92
Width: 1365
GlyphClass: 1
Flags: W
LayerCount: 2
Fore
SplineSet
0 682 m 1,0,-1
 341 682 l 1,1,-1
 341 1024 l 1,2,-1
 341 1365 l 1,3,-1
 0 1365 l 1,4,-1
 0 1024 l 1,5,-1
 0 682 l 1,0,-1
341 -342 m 1,6,-1
 682 -342 l 1,7,-1
 682 0 l 1,8,-1
 341 0 l 1,9,-1
 341 -342 l 1,6,-1
341 341 m 1,10,-1
 682 341 l 1,11,-1
 682 0 l 1,12,-1
 1024 0 l 1,13,-1
 1024 341 l 1,14,-1
 1024 682 l 1,15,-1
 1024 1024 l 1,16,-1
 1024 1365 l 1,17,-1
 682 1365 l 1,18,-1
 682 1024 l 1,19,-1
 682 682 l 1,20,-1
 341 682 l 1,21,-1
 341 341 l 1,10,-1
EndSplineSet
Validated: 5
EndChar

StartChar: z
Encoding: 122 122 93
Width: 1365
GlyphClass: 1
Flags: W
LayerCount: 2
Fore
SplineSet
0 0 m 1,0,-1
 341 0 l 1,1,-1
 682 0 l 1,2,-1
 1024 0 l 1,3,-1
 1024 341 l 1,4,-1
 682 341 l 1,5,-1
 341 341 l 1,6,-1
 341 682 l 1,7,-1
 0 682 l 1,8,-1
 0 341 l 1,9,-1
 0 0 l 1,0,-1
0 1024 m 1,10,-1
 341 1024 l 1,11,-1
 682 1024 l 1,12,-1
 682 682 l 1,13,-1
 1024 682 l 1,14,-1
 1024 1024 l 1,15,-1
 1024 1365 l 1,16,-1
 682 1365 l 1,17,-1
 341 1365 l 1,18,-1
 0 1365 l 1,19,-1
 0 1024 l 1,10,-1
EndSplineSet
Validated: 9
EndChar

StartChar: braceleft
Encoding: 123 123 94
Width: 1365
GlyphClass: 1
Flags: W
LayerCount: 2
Fore
SplineSet
0 682 m 1,0,-1
 341 682 l 1,1,-1
 341 1024 l 1,2,-1
 0 1024 l 1,3,-1
 0 682 l 1,0,-1
341 0 m 1,4,-1
 682 0 l 1,5,-1
 1024 0 l 1,6,-1
 1024 341 l 1,7,-1
 682 341 l 1,8,-1
 682 682 l 1,9,-1
 341 682 l 1,10,-1
 341 341 l 1,11,-1
 341 0 l 1,4,-1
341 1024 m 1,12,-1
 682 1024 l 1,13,-1
 682 1365 l 1,14,-1
 1024 1365 l 1,15,-1
 1024 1706 l 1,16,-1
 682 1706 l 1,17,-1
 341 1706 l 1,18,-1
 341 1365 l 1,19,-1
 341 1024 l 1,12,-1
EndSplineSet
Validated: 5
EndChar

StartChar: bar
Encoding: 124 124 95
Width: 682
GlyphClass: 1
Flags: W
LayerCount: 2
Fore
SplineSet
0 0 m 1,0,-1
 341 0 l 1,1,-1
 341 341 l 1,2,-1
 341 682 l 1,3,-1
 341 1024 l 1,4,-1
 341 1365 l 1,5,-1
 341 1706 l 1,6,-1
 0 1706 l 1,7,-1
 0 1365 l 1,8,-1
 0 1024 l 1,9,-1
 0 682 l 1,10,-1
 0 341 l 1,11,-1
 0 0 l 1,0,-1
EndSplineSet
Validated: 9
EndChar

StartChar: braceright
Encoding: 125 125 96
Width: 1365
GlyphClass: 1
Flags: W
LayerCount: 2
Fore
SplineSet
0 0 m 1,0,-1
 341 0 l 1,1,-1
 682 0 l 1,2,-1
 682 341 l 1,3,-1
 682 682 l 1,4,-1
 341 682 l 1,5,-1
 341 341 l 1,6,-1
 0 341 l 1,7,-1
 0 0 l 1,0,-1
0 1365 m 1,8,-1
 341 1365 l 1,9,-1
 341 1024 l 1,10,-1
 682 1024 l 1,11,-1
 682 1365 l 1,12,-1
 682 1706 l 1,13,-1
 341 1706 l 1,14,-1
 0 1706 l 1,15,-1
 0 1365 l 1,8,-1
682 682 m 1,16,-1
 1024 682 l 1,17,-1
 1024 1024 l 1,18,-1
 682 1024 l 1,19,-1
 682 682 l 1,16,-1
EndSplineSet
Validated: 5
EndChar

StartChar: asciitilde
Encoding: 126 126 97
Width: 1365
GlyphClass: 1
Flags: W
LayerCount: 2
Fore
SplineSet
0 341 m 1,0,-1
 341 341 l 1,1,-1
 682 341 l 1,2,-1
 682 682 l 1,3,-1
 1024 682 l 1,4,-1
 1024 1024 l 1,5,-1
 682 1024 l 1,6,-1
 341 1024 l 1,7,-1
 341 682 l 1,8,-1
 0 682 l 1,9,-1
 0 341 l 1,0,-1
EndSplineSet
Validated: 9
EndChar

StartChar: exclamdown
Encoding: 161 161 99
Width: 682
GlyphClass: 1
Flags: W
LayerCount: 2
Fore
SplineSet
0 -342 m 1,0,-1
 341 -342 l 1,1,-1
 341 -1 l 1,2,-1
 341 340 l 1,3,-1
 341 682 l 1,4,-1
 0 682 l 1,5,-1
 0 340 l 1,6,-1
 0 -1 l 1,7,-1
 0 -342 l 1,0,-1
0 1023 m 1,8,-1
 341 1023 l 1,9,-1
 341 1364 l 1,10,-1
 0 1364 l 1,11,-1
 0 1023 l 1,8,-1
EndSplineSet
EndChar

StartChar: cent
Encoding: 162 162 100
Width: 1365
GlyphClass: 1
Flags: W
LayerCount: 2
Fore
SplineSet
0 341 m 1,0,-1
 341 341 l 1,1,-1
 341 0 l 1,2,-1
 682 0 l 1,3,-1
 682 341 l 1,4,-1
 1024 341 l 1,5,-1
 1024 682 l 1,6,-1
 682 682 l 1,7,-1
 341 682 l 1,8,-1
 341 1024 l 1,9,-1
 682 1024 l 1,10,-1
 1024 1024 l 1,11,-1
 1024 1365 l 1,12,-1
 682 1365 l 1,13,-1
 682 1706 l 1,14,-1
 341 1706 l 1,15,-1
 341 1365 l 1,16,-1
 0 1365 l 1,17,-1
 0 1024 l 1,18,-1
 0 682 l 1,19,-1
 0 341 l 1,0,-1
EndSplineSet
Validated: 9
EndChar

StartChar: sterling
Encoding: 163 163 101
Width: 1365
GlyphClass: 1
Flags: W
LayerCount: 2
Fore
SplineSet
0 0 m 1,0,-1
 341 0 l 1,1,-1
 682 0 l 1,2,-1
 1024 0 l 1,3,-1
 1024 341 l 1,4,-1
 682 341 l 1,5,-1
 682 682 l 1,6,-1
 1024 682 l 1,7,-1
 1024 1024 l 1,8,-1
 682 1024 l 1,9,-1
 682 1365 l 1,10,-1
 341 1365 l 1,11,-1
 341 1024 l 1,12,-1
 0 1024 l 1,13,-1
 0 682 l 1,14,-1
 341 682 l 1,15,-1
 341 341 l 1,16,-1
 0 341 l 1,17,-1
 0 0 l 1,0,-1
682 1365 m 1,18,-1
 1024 1365 l 1,19,-1
 1024 1706 l 1,20,-1
 682 1706 l 1,21,-1
 682 1365 l 1,18,-1
EndSplineSet
Validated: 5
EndChar

StartChar: yen
Encoding: 165 165 102
Width: 1365
GlyphClass: 1
Flags: W
LayerCount: 2
Fore
SplineSet
0 341 m 1,0,-1
 341 341 l 1,1,-1
 341 0 l 1,2,-1
 682 0 l 1,3,-1
 682 341 l 1,4,-1
 1024 341 l 1,5,-1
 1024 682 l 1,6,-1
 682 682 l 1,7,-1
 682 1024 l 1,8,-1
 341 1024 l 1,9,-1
 341 682 l 1,10,-1
 0 682 l 1,11,-1
 0 341 l 1,0,-1
0 1024 m 1,12,-1
 341 1024 l 1,13,-1
 341 1365 l 1,14,-1
 341 1706 l 1,15,-1
 0 1706 l 1,16,-1
 0 1365 l 1,17,-1
 0 1024 l 1,12,-1
682 1024 m 1,18,-1
 1024 1024 l 1,19,-1
 1024 1365 l 1,20,-1
 1024 1706 l 1,21,-1
 682 1706 l 1,22,-1
 682 1365 l 1,23,-1
 682 1024 l 1,18,-1
EndSplineSet
Validated: 5
EndChar

StartChar: brokenbar
Encoding: 166 166 103
Width: 682
GlyphClass: 1
Flags: W
LayerCount: 2
Fore
SplineSet
0 0 m 1,0,-1
 341 0 l 1,1,-1
 341 341 l 1,2,-1
 341 682 l 1,3,-1
 0 682 l 1,4,-1
 0 341 l 1,5,-1
 0 0 l 1,0,-1
0 1024 m 1,6,-1
 341 1024 l 1,7,-1
 341 1365 l 1,8,-1
 341 1706 l 1,9,-1
 0 1706 l 1,10,-1
 0 1365 l 1,11,-1
 0 1024 l 1,6,-1
EndSplineSet
Validated: 9
EndChar

StartChar: section
Encoding: 167 167 104
Width: 1365
GlyphClass: 1
Flags: W
LayerCount: 2
Fore
SplineSet
0 0 m 1,0,-1
 341 0 l 1,1,-1
 682 0 l 1,2,-1
 682 341 l 1,3,-1
 1024 341 l 1,4,-1
 1024 682 l 1,5,-1
 1024 1024 l 1,6,-1
 682 1024 l 1,7,-1
 682 682 l 1,8,-1
 341 682 l 1,9,-1
 341 341 l 1,10,-1
 0 341 l 1,11,-1
 0 0 l 1,0,-1
0 682 m 1,12,-1
 341 682 l 1,13,-1
 341 1024 l 1,14,-1
 682 1024 l 1,15,-1
 682 1365 l 1,16,-1
 1024 1365 l 1,17,-1
 1024 1706 l 1,18,-1
 682 1706 l 1,19,-1
 341 1706 l 1,20,-1
 341 1365 l 1,21,-1
 0 1365 l 1,22,-1
 0 1024 l 1,23,-1
 0 682 l 1,12,-1
EndSplineSet
Validated: 5
EndChar

StartChar: dieresis
Encoding: 168 168 105
Width: 1365
GlyphClass: 1
Flags: W
LayerCount: 2
Fore
SplineSet
0 1365 m 1,0,-1
 341 1365 l 1,1,-1
 341 1706 l 1,2,-1
 0 1706 l 1,3,-1
 0 1365 l 1,0,-1
682 1365 m 1,4,-1
 1024 1365 l 1,5,-1
 1024 1706 l 1,6,-1
 682 1706 l 1,7,-1
 682 1365 l 1,4,-1
EndSplineSet
Validated: 9
EndChar

StartChar: degree
Encoding: 176 176 106
Width: 1365
GlyphClass: 1
Flags: W
LayerCount: 2
Fore
SplineSet
0 1024 m 1,0,-1
 341 1024 l 1,1,-1
 341 1365 l 1,2,-1
 0 1365 l 1,3,-1
 0 1024 l 1,0,-1
341 682 m 1,4,-1
 682 682 l 1,5,-1
 682 1024 l 1,6,-1
 341 1024 l 1,7,-1
 341 682 l 1,4,-1
341 1365 m 1,8,-1
 682 1365 l 1,9,-1
 682 1706 l 1,10,-1
 341 1706 l 1,11,-1
 341 1365 l 1,8,-1
682 1024 m 1,12,-1
 1024 1024 l 1,13,-1
 1024 1365 l 1,14,-1
 682 1365 l 1,15,-1
 682 1024 l 1,12,-1
EndSplineSet
Validated: 5
EndChar

StartChar: plusminus
Encoding: 177 177 107
Width: 1365
GlyphClass: 1
Flags: W
LayerCount: 2
Fore
SplineSet
0 0 m 1,0,-1
 341 0 l 1,1,-1
 682 0 l 1,2,-1
 1024 0 l 1,3,-1
 1024 341 l 1,4,-1
 682 341 l 1,5,-1
 682 682 l 1,6,-1
 1024 682 l 1,7,-1
 1024 1024 l 1,8,-1
 682 1024 l 1,9,-1
 682 1365 l 1,10,-1
 341 1365 l 1,11,-1
 341 1024 l 1,12,-1
 0 1024 l 1,13,-1
 0 682 l 1,14,-1
 341 682 l 1,15,-1
 341 341 l 1,16,-1
 0 341 l 1,17,-1
 0 0 l 1,0,-1
EndSplineSet
Validated: 9
EndChar

StartChar: periodcentered
Encoding: 183 183 108
Width: 1365
GlyphClass: 1
Flags: W
LayerCount: 2
Fore
SplineSet
341 682 m 1,0,-1
 682 682 l 1,1,-1
 682 1024 l 1,2,-1
 341 1024 l 1,3,-1
 341 682 l 1,0,-1
EndSplineSet
Validated: 9
EndChar

StartChar: questiondown
Encoding: 191 191 109
Width: 1365
GlyphClass: 1
Flags: W
LayerCount: 2
Fore
SplineSet
0 0 m 1,0,-1
 341 0 l 1,1,-1
 682 0 l 1,2,-1
 1024 0 l 1,3,-1
 1024 341 l 1,4,-1
 682 341 l 1,5,-1
 341 341 l 1,6,-1
 341 682 l 1,7,-1
 682 682 l 1,8,-1
 682 1024 l 1,9,-1
 341 1024 l 1,10,-1
 0 1024 l 1,11,-1
 0 682 l 1,12,-1
 0 341 l 1,13,-1
 0 0 l 1,0,-1
341 1365 m 1,14,-1
 682 1365 l 1,15,-1
 682 1706 l 1,16,-1
 341 1706 l 1,17,-1
 341 1365 l 1,14,-1
EndSplineSet
Validated: 9
EndChar

StartChar: Adieresis
Encoding: 196 196 110
Width: 1362
GlyphClass: 2
Flags: W
LayerCount: 2
Fore
SplineSet
682 1705 m 1,0,-1
 1024 1706 l 1,1,-1
 1024 1365 l 1,2,-1
 682 1365 l 1,3,-1
 682 1705 l 1,0,-1
0 1706 m 1,4,-1
 340 1706 l 1,5,-1
 340 1365 l 1,6,-1
 0 1365 l 1,7,-1
 0 1706 l 1,4,-1
0 0 m 1,8,-1
 341 0 l 1,9,-1
 341 341 l 1,10,-1
 682 341 l 1,11,-1
 682 0 l 1,12,-1
 1024 0 l 1,13,-1
 1024 341 l 1,14,-1
 1024 683 l 1,15,-1
 1024 1024 l 1,16,-1
 682 1024 l 1,17,-1
 682 683 l 1,18,-1
 341 683 l 1,19,-1
 341 1024 l 1,20,-1
 0 1024 l 1,21,-1
 0 683 l 1,22,-1
 0 341 l 1,23,-1
 0 0 l 1,8,-1
341 1024 m 1,24,-1
 682 1024 l 1,25,-1
 682 1365 l 1,26,-1
 341 1365 l 1,27,-1
 341 1024 l 1,24,-1
EndSplineSet
Validated: 5
EndChar

StartChar: Odieresis
Encoding: 214 214 111
Width: 1365
GlyphClass: 2
Flags: W
LayerCount: 2
Fore
SplineSet
0 1365 m 1,0,-1
 341 1365 l 1,1,-1
 341 1706 l 1,2,-1
 0 1706 l 1,3,-1
 0 1365 l 1,0,-1
682 1365 m 1,4,-1
 1024 1365 l 1,5,-1
 1024 1706 l 1,6,-1
 682 1706 l 1,7,-1
 682 1365 l 1,4,-1
0 341 m 1,8,-1
 341 341 l 1,9,10
 341 341 341 341 341 683 c 2,11,-1
 341 1024 l 1,12,-1
 0 1024 l 1,13,-1
 0 683 l 1,14,-1
 0 341 l 1,8,-1
341 0 m 1,15,-1
 682 0 l 1,16,-1
 682 341 l 1,17,-1
 341 341 l 1,18,-1
 341 0 l 1,15,-1
341 1024 m 1,19,-1
 682 1024 l 1,20,-1
 682 1365 l 1,21,-1
 341 1365 l 1,22,-1
 341 1024 l 1,19,-1
682 341 m 1,23,-1
 1024 341 l 1,24,25
 1024 341 1024 341 1024 683 c 2,26,-1
 1024 1024 l 1,27,-1
 682 1024 l 1,28,-1
 682 683 l 1,29,30
 682 683 682 683 682 341 c 1,23,-1
EndSplineSet
Validated: 5
EndChar

StartChar: Udieresis
Encoding: 220 220 112
Width: 1365
GlyphClass: 2
Flags: W
LayerCount: 2
Fore
SplineSet
0 1365 m 1,0,-1
 341 1365 l 1,1,-1
 341 1706 l 1,2,-1
 0 1706 l 1,3,-1
 0 1365 l 1,0,-1
682 1365 m 1,4,-1
 1024 1365 l 1,5,-1
 1024 1706 l 1,6,-1
 682 1706 l 1,7,-1
 682 1365 l 1,4,-1
0 0 m 1,8,-1
 341 0 l 1,9,-1
 682 0 l 1,10,-1
 1024 0 l 1,11,-1
 1024 341 l 1,12,13
 1024 341 1024 341 1024 683 c 2,14,-1
 1024 1024 l 1,15,-1
 682 1024 l 1,16,-1
 682 683 l 1,17,18
 682 683 682 683 682 341 c 1,19,-1
 341 341 l 1,20,21
 341 341 341 341 341 683 c 2,22,-1
 341 1024 l 1,23,-1
 0 1024 l 1,24,-1
 0 683 l 2,25,26
 0 512 0 512 0 341 c 2,27,-1
 0 0 l 1,8,-1
EndSplineSet
Validated: 9
EndChar

StartChar: germandbls
Encoding: 223 223 113
Width: 1365
GlyphClass: 2
Flags: W
LayerCount: 2
Fore
SplineSet
0 -340 m 1,0,-1
 340 -343 l 1,1,2
 340 -343 340 -343 341 0 c 1,3,-1
 682 0 l 1,4,-1
 682 341 l 1,5,-1
 341 341 l 1,6,-1
 341 682 l 1,7,-1
 682 682 l 1,8,-1
 682 1024 l 1,9,-1
 341 1024 l 1,10,-1
 341 1365 l 1,11,-1
 682 1365 l 1,12,-1
 682 1706 l 1,13,-1
 341 1706 l 1,14,-1
 341 1365 l 1,15,-1
 0 1365 l 1,16,-1
 0 1024 l 1,17,-1
 0 682 l 1,18,-1
 0 341 l 1,19,-1
 0 -340 l 1,0,-1
682 341 m 1,20,-1
 1024 341 l 1,21,-1
 1024 682 l 1,22,-1
 682 682 l 1,23,-1
 682 341 l 1,20,-1
682 1024 m 1,24,-1
 1024 1024 l 1,25,-1
 1024 1365 l 1,26,-1
 682 1365 l 1,27,-1
 682 1024 l 1,24,-1
EndSplineSet
Validated: 5
EndChar

StartChar: adieresis
Encoding: 228 228 114
Width: 1365
GlyphClass: 2
Flags: W
LayerCount: 2
Fore
SplineSet
0 1365 m 1,0,-1
 339 1365 l 1,1,-1
 341 1706 l 1,2,-1
 0 1706 l 1,3,-1
 0 1365 l 1,0,-1
683 1365 m 1,4,-1
 1024 1365 l 1,5,-1
 1024 1706 l 1,6,-1
 682 1706 l 1,7,-1
 683 1365 l 1,4,-1
-2 343 m 1,8,-1
 341 341 l 1,9,10
 341 341 341 341 341 683 c 1,11,-1
 0 683 l 1,12,13
 -1 513 -1 513 -2 343 c 1,8,-1
341 0 m 1,14,-1
 682 0 l 1,15,-1
 1024 0 l 1,16,-1
 1024 341 l 1,17,18
 1024 341 1024 341 1024 683 c 2,19,-1
 1024 1024 l 1,20,-1
 682 1024 l 1,21,-1
 337 1024 l 1,22,-1
 341 683 l 1,23,-1
 682 683 l 1,24,-1
 682 341 l 1,25,-1
 341 341 l 1,26,-1
 341 0 l 1,14,-1
EndSplineSet
Validated: 5
EndChar

StartChar: odieresis
Encoding: 246 246 115
Width: 1365
GlyphClass: 2
Flags: W
LayerCount: 2
Fore
SplineSet
0 1365 m 1,0,-1
 341 1365 l 1,1,-1
 341 1706 l 1,2,-1
 0 1706 l 1,3,-1
 0 1365 l 1,0,-1
682 1365 m 1,4,-1
 1024 1365 l 1,5,-1
 1024 1706 l 1,6,-1
 682 1706 l 1,7,-1
 682 1365 l 1,4,-1
0 341 m 1,8,-1
 341 341 l 1,9,10
 341 341 341 341 341 683 c 2,11,-1
 341 1024 l 1,12,-1
 0 1024 l 1,13,-1
 0 683 l 1,14,-1
 0 341 l 1,8,-1
341 0 m 1,15,-1
 682 0 l 1,16,-1
 682 341 l 1,17,-1
 341 341 l 1,18,-1
 341 0 l 1,15,-1
341 1024 m 1,19,-1
 682 1024 l 1,20,-1
 682 1365 l 1,21,-1
 341 1365 l 1,22,-1
 341 1024 l 1,19,-1
682 341 m 1,23,-1
 1024 341 l 1,24,25
 1024 341 1024 341 1024 683 c 2,26,-1
 1024 1024 l 1,27,-1
 682 1024 l 1,28,-1
 682 683 l 1,29,30
 682 683 682 683 682 341 c 1,23,-1
EndSplineSet
Validated: 5
EndChar

StartChar: udieresis
Encoding: 252 252 116
Width: 1365
GlyphClass: 2
Flags: W
LayerCount: 2
Fore
SplineSet
0 1365 m 1,0,-1
 341 1365 l 1,1,-1
 341 1706 l 1,2,-1
 0 1706 l 1,3,-1
 0 1365 l 1,0,-1
682 1365 m 1,4,-1
 1024 1365 l 1,5,-1
 1024 1706 l 1,6,-1
 682 1706 l 1,7,-1
 682 1365 l 1,4,-1
0 341 m 1,8,-1
 341 341 l 1,9,-1
 341 682 l 1,10,11
 341 682 341 682 341 1024 c 1,12,-1
 0 1024 l 1,13,14
 0 1024 0 1024 0 682 c 2,15,-1
 0 341 l 1,8,-1
341 0 m 1,16,-1
 682 0 l 1,17,-1
 1024 0 l 1,18,-1
 1024 341 l 1,19,-1
 1024 682 l 1,20,21
 1024 682 1024 682 1024 1024 c 1,22,-1
 682 1024 l 1,23,24
 682 1024 682 1024 682 682 c 2,25,-1
 682 341 l 1,26,-1
 341 341 l 1,27,-1
 341 0 l 1,16,-1
EndSplineSet
Validated: 5
EndChar

StartChar: emdash
Encoding: 8212 8212 117
Width: 1365
GlyphClass: 1
Flags: W
LayerCount: 2
Fore
SplineSet
0 682 m 1,0,-1
 341 682 l 1,1,-1
 682 682 l 1,2,-1
 1024 682 l 1,3,-1
 1024 1024 l 1,4,-1
 682 1024 l 1,5,-1
 341 1024 l 1,6,-1
 0 1024 l 1,7,-1
 0 682 l 1,0,-1
EndSplineSet
Validated: 9
EndChar

StartChar: quoteleft
Encoding: 8216 8216 118
Width: 1365
GlyphClass: 1
Flags: W
LayerCount: 2
Fore
SplineSet
0 1024 m 1,0,-1
 341 1024 l 1,1,-1
 341 1365 l 1,2,-1
 341 1706 l 1,3,-1
 0 1706 l 1,4,-1
 0 1365 l 1,5,-1
 0 1024 l 1,0,-1
EndSplineSet
Validated: 9
EndChar

StartChar: quoteright
Encoding: 8217 8217 119
Width: 1365
GlyphClass: 1
Flags: W
LayerCount: 2
Fore
SplineSet
682 1024 m 1,0,-1
 1024 1024 l 1,1,-1
 1024 1365 l 1,2,-1
 1024 1706 l 1,3,-1
 682 1706 l 1,4,-1
 682 1365 l 1,5,-1
 682 1024 l 1,0,-1
EndSplineSet
Validated: 9
EndChar

StartChar: quotesinglbase
Encoding: 8218 8218 120
Width: 1365
GlyphClass: 1
Flags: W
LayerCount: 2
Fore
SplineSet
341 0 m 1,0,-1
 682 0 l 1,1,-1
 682 341 l 1,2,-1
 682 682 l 1,3,-1
 341 682 l 1,4,-1
 341 341 l 1,5,-1
 341 0 l 1,0,-1
EndSplineSet
Validated: 9
EndChar

StartChar: quotedblleft
Encoding: 8220 8220 121
Width: 1365
GlyphClass: 1
Flags: W
LayerCount: 2
Fore
SplineSet
0 1024 m 1,0,-1
 341 1024 l 1,1,-1
 341 1365 l 1,2,-1
 341 1706 l 1,3,-1
 0 1706 l 1,4,-1
 0 1365 l 1,5,-1
 0 1024 l 1,0,-1
682 1024 m 1,6,-1
 1024 1024 l 1,7,-1
 1024 1365 l 1,8,-1
 1024 1706 l 1,9,-1
 682 1706 l 1,10,-1
 682 1365 l 1,11,-1
 682 1024 l 1,6,-1
EndSplineSet
Validated: 9
EndChar

StartChar: quotedblright
Encoding: 8221 8221 122
Width: 1365
GlyphClass: 1
Flags: W
LayerCount: 2
Fore
SplineSet
0 1024 m 1,0,-1
 341 1024 l 1,1,-1
 341 1365 l 1,2,-1
 341 1706 l 1,3,-1
 0 1706 l 1,4,-1
 0 1365 l 1,5,-1
 0 1024 l 1,0,-1
682 1024 m 1,6,-1
 1024 1024 l 1,7,-1
 1024 1365 l 1,8,-1
 1024 1706 l 1,9,-1
 682 1706 l 1,10,-1
 682 1365 l 1,11,-1
 682 1024 l 1,6,-1
EndSplineSet
Validated: 9
EndChar

StartChar: quotedblbase
Encoding: 8222 8222 123
Width: 1365
GlyphClass: 1
Flags: W
LayerCount: 2
Fore
SplineSet
0 0 m 1,0,-1
 341 0 l 1,1,-1
 341 341 l 1,2,-1
 341 682 l 1,3,-1
 0 682 l 1,4,-1
 0 341 l 1,5,-1
 0 0 l 1,0,-1
682 0 m 1,6,-1
 1024 0 l 1,7,-1
 1024 341 l 1,8,-1
 1024 682 l 1,9,-1
 682 682 l 1,10,-1
 682 341 l 1,11,-1
 682 0 l 1,6,-1
EndSplineSet
Validated: 9
EndChar

StartChar: Euro
Encoding: 8364 8364 124
Width: 1365
Flags: W
LayerCount: 2
Fore
SplineSet
341 0 m 1,0,-1
 682 0 l 1,1,-1
 1024 0 l 1,2,-1
 1024 341 l 1,3,-1
 682 341 l 1,4,-1
 341 341 l 1,5,-1
 341 0 l 1,0,-1
341 1365 m 1,6,-1
 682 1365 l 1,7,-1
 1024 1365 l 1,8,-1
 1024 1706 l 1,9,-1
 682 1706 l 1,10,-1
 341 1706 l 1,11,-1
 341 1365 l 1,6,-1
341 1365 m 1,12,-1
 0 1365 l 1,13,-1
 0 1024 l 1,14,-1
 0 682 l 1,15,-1
 0 341 l 1,16,-1
 341 341 l 1,17,-1
 341 682 l 1,18,-1
 682 682 l 1,19,-1
 1024 682 l 1,20,-1
 1024 1024 l 1,21,-1
 682 1024 l 1,22,-1
 341 1024 l 1,23,-1
 341 1365 l 1,12,-1
EndSplineSet
Validated: 5
EndChar

StartChar: uni201F
Encoding: 8223 8223 125
Width: 1365
Flags: W
LayerCount: 2
Fore
SplineSet
0 1024 m 1,0,-1
 341 1024 l 1,1,-1
 341 1365 l 1,2,-1
 341 1706 l 1,3,-1
 0 1706 l 1,4,-1
 0 1365 l 1,5,-1
 0 1024 l 1,0,-1
682 1024 m 1,6,-1
 1024 1024 l 1,7,-1
 1024 1365 l 1,8,-1
 1024 1706 l 1,9,-1
 682 1706 l 1,10,-1
 682 1365 l 1,11,-1
 682 1024 l 1,6,-1
EndSplineSet
EndChar
